<?xml version="1.0" encoding="UTF-8"?>
<svg width="29px" height="29px" viewBox="0 0 29 29" version="1.1" xmlns="http://www.w3.org/2000/svg" xmlns:xlink="http://www.w3.org/1999/xlink">
    <!-- Generator: Sketch 43.1 (39012) - http://www.bohemiancoding.com/sketch -->
    <title>Group</title>
    <desc>Created with Sketch.</desc>
    <defs></defs>
    <g id="Page-1" stroke="none" stroke-width="1" fill="none" fill-rule="evenodd">
        <g id="2-artboard" transform="translate(-138.000000, -91.000000)" fill="#FF7500">
            <g id="telephone-51-copy-3" transform="translate(138.000000, 91.000000)">
                <g id="Group">
                    <path d="M27.8043799,21.6546384 L23.6841555,17.4778157 C23.1308298,16.9199978 22.3898782,16.6126482 21.5980988,16.6126482 C20.7741247,16.6126482 19.9961431,16.941388 19.4079103,17.5378038 L17.8040677,19.1626216 C16.5577877,18.4606889 14.9013485,17.4952624 13.1815811,15.7526193 C11.4638186,14.0114101 10.5109474,12.337837 9.81469103,11.0681679 L11.4200667,9.44263309 C12.6136322,8.23068172 12.6380436,6.28632552 11.4746681,5.10855066 L7.3552692,0.934237405 C6.8034766,0.373551564 6.06252492,0.0647680575 5.26874078,0.0647680575 C4.46316367,0.0647680575 3.70110259,0.379048484 3.1162897,0.951086659 C2.7625009,1.23979446 0.987070759,2.82792635 0.325367769,6.10313468 C-0.601087175,10.6874465 1.52754212,15.0982468 7.67261776,21.3275716 C14.5371819,28.2812949 20.3974576,28.8217856 22.0300749,28.8217856 C22.3699481,28.8217856 22.5750276,28.8005149 22.629747,28.794062 C25.8311818,28.4138185 26.9774576,26.9731475 27.8144039,25.9212043 C28.8988845,24.5578486 28.8951108,22.7639407 27.8043799,21.6546384 L27.8043799,21.6546384 Z M26.4372221,24.7961282 C25.6505137,25.7848568 24.9075572,26.7186162 22.4239598,27.0136574 C22.4226626,27.0137769 22.2868077,27.0291922 22.0300749,27.0291922 C20.5693989,27.0291922 15.3071443,26.5265825 8.92349704,20.0600536 C3.25662593,14.3154137 1.26762528,10.3759145 2.05834325,6.46258545 C2.63549072,3.60586003 4.16775002,2.3916382 4.22730447,2.34551187 L4.28013693,2.30595794 L4.32648327,2.25887563 C4.58227257,1.9999229 4.91683885,1.85724197 5.26862285,1.85724197 C5.58891964,1.85724197 5.8851588,1.9788912 6.10356442,2.20091897 L10.2239067,6.37618821 C10.6979837,6.85609323 10.6727468,7.66366247 10.1683619,8.17583202 L8.3528357,10.0139543 L8.32299951,10.0456213 C7.84986595,10.5736841 7.90552872,11.2873277 8.16615314,11.7520565 C8.9181902,13.1272425 9.94830527,15.0106546 11.930466,17.0197788 C13.9060227,19.0216137 15.7619987,20.0645945 17.1153588,20.8252009 C17.2508599,20.9022773 17.530589,21.0315744 17.8807219,21.0315744 C18.2941831,21.0315744 18.6737985,20.854239 18.9548247,20.5309962 L20.6586716,18.8049633 C20.9130458,18.5470861 21.2465507,18.4050027 21.597863,18.4050027 C21.9188673,18.4050027 22.2166396,18.5270104 22.4345735,18.7466482 L26.5520855,22.9207224 C27.0751033,23.4526092 26.8591742,24.2657949 26.4372221,24.7961282 L26.4372221,24.7961282 Z" id="Shape"></path>
                    <path d="M17.3883659,4.45644865 C18.9081246,4.63366457 20.6975884,5.56646799 21.9471704,6.83279107 C23.2084275,8.11082497 24.1312266,9.94249431 24.2978612,11.4991982 C24.3470378,11.95843 24.730309,12.298761 25.1760829,12.298761 C25.2079239,12.298761 25.2402366,12.2969685 25.2725493,12.2935031 C25.7581834,12.2400874 26.1091419,11.7979438 26.0564274,11.30585 C25.8456872,9.33807211 24.750357,7.13846762 23.1980497,5.56539251 C21.6602477,4.00701569 19.5116883,2.8998643 17.5906151,2.67580506 C17.1055707,2.61880439 16.6667546,2.97204125 16.610856,3.4636571 C16.5549574,3.95527294 16.9029676,4.39980647 17.3883659,4.45644865 L17.3883659,4.45644865 Z" id="Shape"></path>
                    <path d="M16.5620331,8.21084501 C17.3840025,8.30680212 18.5215514,8.92460812 19.2667485,9.67971764 C20.0183139,10.4413996 20.6291892,11.6050736 20.7191695,12.4469389 C20.7683461,12.9062902 21.1516173,13.2466212 21.5973912,13.2466212 C21.6292322,13.2466212 21.661427,13.2448288 21.6937397,13.2413633 C22.1793738,13.1879476 22.5304502,12.745804 22.4777357,12.2537102 C22.3239555,10.8163851 21.3822876,9.28859983 20.517392,8.41219958 C19.6602796,7.54356672 18.1672909,6.59391404 16.7642824,6.43008193 C16.2785304,6.37284226 15.840304,6.72619862 15.7844054,7.21781446 C15.7286247,7.70954981 16.0767528,8.15420284 16.5620331,8.21084501 L16.5620331,8.21084501 Z" id="Shape"></path>
                </g>
            </g>
        </g>
    </g>
</svg>