<?xml version="1.0" encoding="UTF-8"?>
<svg width="28px" height="17px" viewBox="0 0 28 17" version="1.1" xmlns="http://www.w3.org/2000/svg" xmlns:xlink="http://www.w3.org/1999/xlink">
    <!-- Generator: Sketch 44.1 (41455) - http://www.bohemiancoding.com/sketch -->
    <title>263093</title>
    <desc>Created with Sketch.</desc>
    <defs></defs>
    <g id="Page-1" stroke="none" stroke-width="1" fill="none" fill-rule="evenodd">
        <g id="24-artboard" transform="translate(-1152.000000, -57.000000)" fill="#C7C7C7">
            <g id="263093" transform="translate(1152.000000, 57.000000)">
                <g id="Layer_1">
                    <path d="M27.9806406,1.45121154 C27.9794922,0.663926282 27.3363125,0.0242467949 26.5463516,0.0242467949 L26.5444922,0.0242467949 L1.43226563,0.0586282051 C1.04917969,0.0591185897 0.689171875,0.20825 0.418632813,0.47850641 C0.148148438,0.748817308 -0.0004921875,1.10794231 4.05367165e-13,1.48951603 L0.0194140625,15.5487885 C0.01990625,15.9304712 0.169585938,16.2891603 0.440835938,16.5587083 C0.71159375,16.827766 1.07116406,16.9758077 1.45359375,16.9758077 L1.45550781,16.9758077 L26.5676797,16.9414263 C27.3583516,16.9403365 28.000875,16.2985321 27.9999453,15.5105385 L27.9806406,1.45121154 Z M24.9709141,1.45535256 L14.0010937,9.05326282 L3.01,1.48542949 L24.9709141,1.45535256 Z M18.6400156,10.4872019 L25.1462422,15.5144615 L2.83527344,15.5449744 L9.38114844,10.4872019 C9.69407031,10.2453333 9.75105469,9.79657692 9.50835156,9.48469231 C9.26559375,9.17291667 8.8151875,9.11614103 8.50215625,9.35795513 L1.45255469,14.804984 L1.43505469,2.13807692 L13.5944922,10.5104135 C13.7172109,10.5949231 13.8596719,10.6370962 14.0021875,10.6370962 C14.1453047,10.6370962 14.2885313,10.5944327 14.4115234,10.5092692 L26.5473359,2.10385897 L26.5657109,14.8029679 L19.5188984,9.35800962 C19.2061406,9.11625 18.7555156,9.17297115 18.5128125,9.48474679 C18.2700547,9.79652244 18.3269844,10.2453878 18.6400156,10.4872019 Z" id="Shape"></path>
                </g>
            </g>
        </g>
    </g>
</svg>