<?xml version="1.0" encoding="UTF-8"?>
<svg width="28px" height="23px" viewBox="0 0 28 23" version="1.1" xmlns="http://www.w3.org/2000/svg" xmlns:xlink="http://www.w3.org/1999/xlink">
    <!-- Generator: Sketch 44.1 (41455) - http://www.bohemiancoding.com/sketch -->
    <title>263092</title>
    <desc>Created with Sketch.</desc>
    <defs></defs>
    <g id="Page-1" stroke="none" stroke-width="1" fill="none" fill-rule="evenodd">
        <g id="24-artboard" transform="translate(-1111.000000, -55.000000)" fill="#b7b7b7">
            <g id="263092" transform="translate(1111.000000, 55.000000)">
                <g id="Layer_1">
                    <path d="M25.9769045,3.52175352 L20.7598441,3.52175352 L20.7598441,0.609284038 C20.7598441,0.285610329 20.4944717,0.0231079812 20.1672593,0.0231079812 L7.77815984,0.0231079812 C7.45094737,0.0231079812 7.18557505,0.285610329 7.18557505,0.609284038 L7.18557505,3.52180751 L1.96851462,3.52180751 C0.883064327,3.52175352 0,4.3953216 0,5.46903286 L0,14.800608 C0,15.8743192 0.883064327,16.7478873 1.96851462,16.7478873 L7.18557505,16.7478873 L7.18557505,22.390716 C7.18557505,22.7143897 7.45094737,22.976892 7.77815984,22.976892 L20.1673138,22.976892 C20.4945263,22.976892 20.7598986,22.7143897 20.7598986,22.390716 L20.7598986,16.7478873 L25.9769591,16.7478873 C27.0623548,16.7478873 27.9454737,15.8743732 27.9454737,14.800608 L27.9454737,5.46903286 C27.9454191,4.3953216 27.0623002,3.52175352 25.9769045,3.52175352 Z M20.7597895,4.69405164 L22.173271,4.69405164 L22.173271,6.33455634 L20.7597895,6.33455634 L20.7597895,4.69405164 Z M8.37069006,1.19546009 L19.5746745,1.19546009 L19.5746745,6.33461033 L8.37069006,6.33461033 L8.37069006,1.19546009 Z M5.77209357,4.69410563 L7.18557505,4.69410563 L7.18557505,6.33461033 L5.77209357,6.33461033 L5.77209357,4.69410563 L5.77209357,4.69410563 Z M19.574729,21.8045399 L8.37069006,21.8045399 L8.37069006,14.0850164 L19.5746745,14.0850164 L19.5746745,21.8045399 L19.574729,21.8045399 Z M26.7603587,14.800608 L26.7603041,14.800608 C26.7603041,15.2279437 26.4088577,15.5755892 25.9769591,15.5755892 L20.7598441,15.5755892 L20.7598441,14.0850704 L21.8408187,14.0850704 C22.1680312,14.0850704 22.4334035,13.8225681 22.4334035,13.4988944 C22.4334035,13.1752207 22.1680312,12.9127183 21.8408187,12.9127183 L20.1673138,12.9127183 L7.77815984,12.9127183 L6.10465497,12.9127183 C5.7774425,12.9127183 5.51207018,13.1752207 5.51207018,13.4988944 C5.51207018,13.8225681 5.7774425,14.0850704 6.10465497,14.0850704 L7.18562963,14.0850704 L7.18562963,15.5755892 L1.96851462,15.5755892 C1.53661598,15.5755892 1.18516959,15.2279437 1.18516959,14.800608 L1.18516959,5.46903286 C1.18516959,5.04175117 1.53661598,4.69405164 1.96851462,4.69405164 L4.58697856,4.69405164 L4.58697856,6.9206784 C4.58697856,7.24435211 4.8522963,7.50685446 5.17956335,7.50685446 L22.7659103,7.50685446 C23.0931228,7.50685446 23.3584951,7.24435211 23.3584951,6.9206784 L23.3584951,4.69405164 L25.9769591,4.69405164 C26.4088577,4.69405164 26.7603587,5.04169718 26.7603587,5.46903286 L26.7603587,14.800608 Z" id="Shape"></path>
                    <ellipse id="Oval" cx="3.75511111" cy="9.51643897" rx="1" ry="1"></ellipse>
                    <path d="M13.8007251,18.5433991 L11.0345653,18.5433991 C10.7073528,18.5433991 10.4419805,18.8057934 10.4419805,19.1295751 C10.4419805,19.4532488 10.7072982,19.7157512 11.0345653,19.7157512 L13.8007251,19.7157512 C14.1279376,19.7157512 14.3933099,19.4532488 14.3933099,19.1295751 C14.3933099,18.8057934 14.1279376,18.5433991 13.8007251,18.5433991 Z" id="Shape"></path>
                    <path d="M16.9108538,15.5753732 L11.0345653,15.5753732 C10.7073528,15.5753732 10.4419805,15.8378756 10.4419805,16.1615493 C10.4419805,16.485277 10.7072982,16.7477254 11.0345653,16.7477254 L16.9107992,16.7477254 C17.2380117,16.7477254 17.503384,16.485277 17.503384,16.1615493 C17.503384,15.8378756 17.2380663,15.5753732 16.9108538,15.5753732 Z" id="Shape"></path>
                </g>
            </g>
        </g>
    </g>
</svg>
