<?xml version="1.0" encoding="UTF-8"?>
<svg width="13px" height="14px" viewBox="0 0 13 14" version="1.1" xmlns="http://www.w3.org/2000/svg" xmlns:xlink="http://www.w3.org/1999/xlink">
    <!-- Generator: Sketch 44.1 (41455) - http://www.bohemiancoding.com/sketch -->
    <title>70490</title>
    <desc>Created with Sketch.</desc>
    <defs></defs>
    <g id="Page-1" stroke="none" stroke-width="1" fill="none" fill-rule="evenodd">
        <g id="22-artboard" transform="translate(-423.000000, -145.000000)" fill="#CCCCCC">
            <g id="70490" transform="translate(423.000000, 145.000000)">
                <g id="Capa_1">
                    <path d="M9.02904051,9.12169421 C9.88507249,8.15462397 10.4191258,6.85971074 10.4191258,5.43367769 C10.4191258,2.44227686 8.08660981,0 5.21219616,0 C2.33778252,0 0.00526652452,2.44227686 0.00526652452,5.43367769 C0.00526652452,8.42507851 2.33778252,10.8673554 5.21219616,10.8673554 C6.38239019,10.8673554 7.45831343,10.465781 8.33006183,9.78553719 L12.2018721,13.8259545 C12.2961151,13.9243017 12.413919,13.9734752 12.5317228,13.9734752 C12.6495267,13.9734752 12.7751748,13.9243017 12.8615736,13.8259545 C13.0422154,13.6374463 13.0422154,13.3260331 12.8615736,13.1293388 L9.02904051,9.12169421 Z M0.947697228,5.43367769 C0.947697228,2.98318595 2.8561194,0.983471074 5.21219616,0.983471074 C7.56042857,0.983471074 9.4766951,2.975 9.4766951,5.43367769 C9.4766951,7.89235537 7.56827292,9.8838843 5.21219616,9.8838843 C2.8561194,9.8838843 0.947697228,7.88416942 0.947697228,5.43367769 Z" id="Shape"></path>
                </g>
            </g>
        </g>
    </g>
</svg>