<svg xmlns="http://www.w3.org/2000/svg" viewBox="0 0 21 21">
  <g fill-rule="evenodd">
    <path d="M16.82 16.795c.086-.06.14-.152.14-.255V1.64c0-.182-.168-.33-.376-.33h-10.9C5.414.554 4.602 0 3.644 0c-.944 0-1.77.547-2.04 1.31H.394c-.21 0-.376.148-.376.33v18.57c0 .18.167.328.376.328H12.36c.123 0 .23-.048.298-.122l4.162-3.62zm-4.08 2.62v-2.548h2.93l-2.93 2.55zM3.644.655c.536 0 1 .268 1.23.657h-2.46c.23-.39.702-.655 1.23-.655zm-2.87 1.31h4.252v2.297c0 .302-.282.547-.628.547-.347 0-.628-.247-.628-.548V2.95c0-.18-.17-.328-.378-.328s-.377.147-.377.328v1.31c0 .663.62 1.202 1.382 1.202.76 0 1.38-.54 1.38-1.2V1.965h10.43V16.21h-3.843c-.208 0-.376.148-.376.33v3.342H.772V1.966z"/>
    <path d="M3.41 14.967h10.16c.208 0 .377-.167.377-.373 0-.207-.17-.374-.377-.374H3.41c-.208 0-.377.167-.377.374 0 .206.17.373.377.373zm0-2.24h10.16c.208 0 .377-.168.377-.375 0-.206-.17-.373-.377-.373H3.41c-.208 0-.377.164-.377.37 0 .207.17.374.377.374zm0-2.242h10.16c.208 0 .377-.168.377-.374 0-.203-.17-.37-.377-.37H3.41c-.208 0-.377.167-.377.373 0 .207.17.375.377.375zm0-2.242h10.16c.208 0 .377-.167.377-.373 0-.207-.17-.374-.377-.374H3.41c-.208 0-.377.167-.377.374 0 .206.17.373.377.373zM18.594 1.31h-.503c-.205 0-.374.148-.374.33 0 .18.17.326.377.326h.127v17.917h-4.024c-.208 0-.376.146-.376.327 0 .18.168.328.376.328h4.4c.208 0 .376-.147.376-.328V1.64c0-.182-.168-.33-.376-.33zm2.01 0H20.1c-.207 0-.376.148-.376.33 0 .18.17.326.377.326h.128v17.917H20.1c-.207 0-.376.146-.376.327 0 .18.17.328.377.328h.505c.208 0 .377-.147.377-.328V1.64c0-.182-.17-.33-.376-.33z"/>
  </g>
</svg>
