<svg xmlns="http://www.w3.org/2000/svg" width="32" height="30">
  <path fill-rule="evenodd" d="M31.32 6.49l-4.096-.412L5.617 4.444 4.83 1.91S4.51.685 4.36.535C4.25.425 3.085.303 3.085.303L.72.027S-.016-.2.004.677C.01 1.014 0 1.692 0 1.692s0 .528.256.603c.595.175 1.222.26 1.222.26l2.328.343S8.08 16.31 9.384 20.268c.1.302.032.967-.036 1.28-.074.34-.36.987-.543 1.28-.214.344-.978 1.28-.978 1.28-.242-.077-.463-.09-.73-.09-1.41 0-2.554 1.19-2.554 2.658s1.143 2.656 2.554 2.656c1.41 0 2.553-1.19 2.553-2.656 0-.467-.116-.906-.32-1.288l12.533-.01c-.207.383-.326.826-.326 1.297 0 1.467 1.144 2.656 2.554 2.656s2.56-1.19 2.56-2.65-1.14-2.65-2.55-2.65c-.09 0-.18.01-.27.02h-9.98l1.41-1.92 1.16-1.77 7.68-.64s2.36-.17 3.63-.3c.8-.07.96-.24 1.09-.68.15-.49.33-1.03.33-1.03l1.66-6.19s.56-1.74.9-3.19c.15-.63.79-1.815-.37-1.815zM7.097 28.128c-.77 0-1.395-.65-1.395-1.45 0-.802.625-1.45 1.395-1.45s1.394.648 1.394 1.45c0 .8-.62 1.45-1.39 1.45zm16.994-2.9c.77 0 1.4.648 1.4 1.45 0 .8-.62 1.45-1.39 1.45s-1.39-.65-1.39-1.45c0-.802.63-1.45 1.4-1.45zm-1.55-18.26l4.21.3-.42 3.056-3.84-.15.06-3.206zm-5.95 7.7l-3.43.12-.99-3.81 3.94-.027.48 3.72zm-3.45 4.8l-2.65.235-.97-3.43 2.69-.173.94 3.37zM15.47 6.44L16 9.972l-4.03-.1-.738-3.695 4.238.263zm-9.31-.678l3.623.226.978 3.843H7.43L6.16 5.77zm2.862 9.167l-1.23-3.86 3.187-.13 1.03 3.87-3 .11zm4.383 7.63c-.905 1.13-1.883 1.51-1.883 1.51h-2.03s.71-1.1.87-1.51c.4-1.02.29-1.62.29-1.62l4.13-.34s-1.003 1.49-1.377 1.96zm.76-3.24l-.844-3.3 3.41-.18.53 3.21-3.09.26zm6.81-.53l-2.787.09-.4-3.02 3.236-.13-.048 3.05zm.17-4.31l-3.43.17-.433-3.64 4.01.07-.147 3.39zm.157-4.4l-4.057-.12-.362-3.47 4.42.3v3.28zm3.512 8.47l-2.752.15.073-2.98 3.236-.13-.55 2.943zm-2.56-4.06l.147-3.36 3.72.15-.55 3.14-3.31.07zm5.52 3.68l-2.017.27.652-2.89 2.1-.09-.74 2.71zm1.074-3.83l-2.22-.024.542-3.04 2.523.075-.845 2.99zm1.136-3.97l-2.584-.1.53-2.95 2.79.226-.736 2.83z"/>
</svg>
