<svg xmlns="http://www.w3.org/2000/svg" viewBox="0 0 22 22">
  <g fill-rule="evenodd">
    <path d="M12.38 7.282c-.168-1.588.567-2.542.85-2.85.262 1.642 1.64 2.902 3.305 2.902 1.58 0 2.9-1.132 3.258-2.647.273.494.73 1.508.62 2.596 2.8-.025 1.422-3.322-.546-3.682-.01-.17-.025-.33-.062-.5-.113-1.04-1.02-3.15-3.618-3.09-2.24.06-2.728 1.79-2.844 2.85-.08.26-.13.53-.148.815-2.913.523-2.593 3.564-.815 3.617zm2.584-4.385s.284.1.284 1.062c.495.17 1.356-1.5 1.356-1.5v1.32c.548.15 2.27-.05 2.27-.05l.064.05c0 .03.008.057.008.086 0 1.37-1.08 2.48-2.41 2.48-1.31 0-2.376-1.085-2.406-2.426.48-.18.834-1.03.834-1.03zM5.787 6.11c1.593 0 2.885-1.33 2.885-2.972 0-1.024.35-1.96-.42-2.494C7.792.322 5.77.168 5.172.168c-.71 0-1.635.598-2.14 1.038-.623.543-.13 1.022-.13 1.93 0 1.644 1.29 2.973 2.886 2.973zm-2.01-3.264c.53-.098.89.082.89.082l.886-.444s-.45.67-.047.444c.902-.312 1.91-.183 2.425-.08.02.117.04.236.04.36 0 1.222-.94 2.21-2.11 2.21-1.165 0-2.11-.988-2.11-2.21 0-.124.02-.243.037-.362z"/>
    <path d="M17.236 7.423h-2.598L11.17 10.84 7.817 6.597H4.003L.01 11.11l.836.887 2.86-2.512v4.872h.573V20.7h-.37v.434h1.66v-6.777h.62v6.777h1.66V20.7h-.36v-6.343h.69v-4.78l2.285 2.416.94-.237.517.132 2.59-3.05.146 1.21-2.4 4.252h2.772v6.348h-.364v.43h1.66v-6.775h.62v6.776h1.66v-.43h-.37V14.3h2.15l-2.12-4.252.116-1.487 2.024 2.8 1.343-.342-3.21-3.585"/>
  </g>
</svg>
