<?xml version="1.0" encoding="UTF-8"?>
<svg width="44px" height="44px" viewBox="0 0 44 44" version="1.1" xmlns="http://www.w3.org/2000/svg" xmlns:xlink="http://www.w3.org/1999/xlink">
    <!-- Generator: Sketch 43.1 (39012) - http://www.bohemiancoding.com/sketch -->
    <title>Segments circle</title>
    <desc>Created with Sketch.</desc>
    <defs>
        <path d="M20.972973,2.64664164 C28.0043277,2.64664164 34.4978362,6.23214457 38.0135135,12.0491843 L33.4746166,14.556529 C30.9034496,10.294043 26.1284252,7.66133105 20.972973,7.66133105 L20.972973,2.64664164 Z" id="path-1"></path>
        <path d="M38.2267899,11.9098874 C41.4379169,18.050096 41.4379169,25.619491 38.2267899,31.7596996 L34.0810811,29.113058 C36.4295173,24.6137672 36.4295173,19.0558198 34.0810811,14.556529 L38.2267899,11.9098874 Z" id="path-2"></path>
        <path d="M38.0135135,31.6204027 C34.4978362,37.4374424 28.0043277,41.0229453 20.972973,41.0229453 L20.972973,36.0082559 C26.1284252,36.0082559 30.9034496,33.375544 33.4746166,29.113058 L38.0135135,31.6204027 Z" id="path-3"></path>
        <path d="M22.2837838,41.0229453 C15.2524291,41.0229453 8.75892058,37.4374424 5.24324324,31.6204027 L9.78214011,29.113058 C12.3533071,33.375544 17.1283316,36.0082559 22.2837838,36.0082559 L22.2837838,41.0229453 Z" id="path-4"></path>
        <path d="M5.0299669,31.7596996 C1.81883986,25.619491 1.81883986,18.050096 5.0299669,11.9098874 L9.17567568,14.556529 C6.82723949,19.0558198 6.82723949,24.6137672 9.17567568,29.113058 L5.0299669,31.7596996 Z" id="path-5"></path>
        <path d="M5.24324324,12.0491843 C8.75892058,6.23214457 15.2524291,2.64664164 22.2837838,2.64664164 L22.2837838,7.66133105 C17.1283316,7.66133105 12.3533071,10.294043 9.78214011,14.556529 L5.24324324,12.0491843 Z" id="path-6"></path>
    </defs>
    <g id="Page-1" stroke="none" stroke-width="1" fill="none" fill-rule="evenodd">
        <g id="10-artboard" transform="translate(-919.000000, -171.000000)">
            <g id="Group-3" transform="translate(892.000000, 163.000000)">
                <g id="Segments-circle" transform="translate(49.416902, 30.157703) rotate(-30.000000) translate(-49.416902, -30.157703) translate(27.861346, 8.030252)">
                    <path d="M21.5054899,3.95953423e-13 C29.1901182,3.95953423e-13 36.2869299,4.15393632 40.1292441,10.8931897 C43.9715583,17.632443 43.9715583,25.9403156 40.1292441,32.679569 C36.2869299,39.4188223 29.1901182,43.5727586 21.5054899,43.5727586 C13.8208615,43.5727586 6.72404983,39.4188223 2.88173564,32.679569 C-0.960578547,25.9403156 -0.960578547,17.632443 2.88173564,10.8931897 C6.72404983,4.15393632 13.8208615,3.95953423e-13 21.5054899,3.95953423e-13 L21.5054899,5.80970115 C15.8710515,5.80970115 10.652386,8.85979426 7.8423353,13.7980402 C5.03228463,18.7362862 5.03228463,24.8364724 7.8423353,29.7747184 C10.652386,34.7129644 15.8710515,37.7630575 21.5054899,37.7630575 C27.1399282,37.7630575 32.3585937,34.7129644 35.1686444,29.7747184 C37.9786951,24.8364724 37.9786951,18.7362862 35.1686444,13.7980402 C32.3585937,8.85979426 27.1399282,5.80970115 21.5054899,5.80970115 L21.5054899,3.95953423e-13 Z" id="Base-plate" fill-opacity="0.002" fill="#455A64"></path>
                    <g id="Segment-1">
                        <use fill="#83AF54" fill-rule="evenodd" xlink:href="#path-1"></use>
                        <path stroke="#FFFFFF" stroke-width="0.66" d="M21.302973,2.97931847 C27.9727311,3.08755306 34.1125007,6.47143402 37.550811,11.9277832 L33.58994,14.115819 C30.9794176,10.0027552 26.3372136,7.44230189 21.302973,7.33485167 L21.302973,2.97931847 Z"></path>
                    </g>
                    <g id="Segment-2">
                        <use fill="#3B69C4" fill-rule="evenodd" xlink:href="#path-2"></use>
                        <path stroke="#FFFFFF" stroke-width="0.66" d="M38.0983878,12.3833741 C41.0407176,18.2620264 41.0407176,25.4075606 38.0983878,31.2862128 L34.5110478,28.9960367 C36.726195,24.54054 36.726195,19.129047 34.5110478,14.6735503 L38.0983878,12.3833741 Z"></path>
                    </g>
                    <g id="Segment-3">
                        <use fill="#874CD3" fill-rule="evenodd" xlink:href="#path-3"></use>
                        <path stroke="#FFFFFF" stroke-width="0.66" d="M37.550811,31.7418038 C34.1125007,37.198153 27.9727311,40.5820339 21.302973,40.6902685 L21.302973,36.3347353 C26.3372136,36.2272851 30.9794176,33.6668318 33.58994,29.5537679 L37.550811,31.7418038 Z"></path>
                    </g>
                    <g id="Segment-4">
                        <use fill="#E03636" fill-rule="evenodd" xlink:href="#path-4"></use>
                        <path stroke="#FFFFFF" stroke-width="0.66" d="M21.9537838,40.6902685 C15.2840256,40.5820339 9.14425605,37.198153 5.70594578,31.7418038 L9.66681676,29.5537679 C12.2773392,33.6668318 16.9195431,36.2272851 21.9537838,36.3347353 L21.9537838,40.6902685 Z"></path>
                    </g>
                    <g id="Segment-5">
                        <use fill="#F28840" fill-rule="evenodd" xlink:href="#path-5"></use>
                        <path stroke="#FFFFFF" stroke-width="0.66" d="M5.15836897,31.2862128 C2.21603917,25.4075606 2.21603917,18.2620264 5.15836897,12.3833741 L8.74570899,14.6735503 C6.53056172,19.129047 6.53056172,24.54054 8.74570899,28.9960367 L5.15836897,31.2862128 Z"></path>
                    </g>
                    <g id="Segment-6">
                        <use fill="#FFDA00" fill-rule="evenodd" xlink:href="#path-6"></use>
                        <path stroke="#FFFFFF" stroke-width="0.66" d="M5.70594578,11.9277832 C9.14425605,6.47143402 15.2840256,3.08755306 21.9537838,2.97931847 L21.9537838,7.33485167 C16.9195431,7.44230189 12.2773392,10.0027552 9.66681676,14.115819 L5.70594578,11.9277832 Z"></path>
                    </g>
                </g>
            </g>
        </g>
    </g>
</svg>