<?xml version="1.0" encoding="UTF-8"?>
<svg width="36px" height="35px" viewBox="0 0 36 35" version="1.1" xmlns="http://www.w3.org/2000/svg" xmlns:xlink="http://www.w3.org/1999/xlink">
    <!-- Generator: Sketch 43.1 (39012) - http://www.bohemiancoding.com/sketch -->
    <title>Group 6</title>
    <desc>Created with Sketch.</desc>
    <defs>
        <path d="M16.6830467,2.10528312 C22.2761697,2.10528312 27.4414606,4.95738772 30.2380221,9.58457841 L26.627536,11.5790572 C24.5822895,8.18844329 20.7839746,6.09424061 16.6830467,6.09424061 L16.6830467,2.10528312 Z" id="path-1"></path>
        <path d="M30.4076738,9.47377404 C32.9619793,14.3580309 32.9619793,20.3791406 30.4076738,25.2633974 L27.1099509,23.1581143 C28.9780251,19.579133 28.9780251,15.1580385 27.1099509,11.5790572 L30.4076738,9.47377404 Z" id="path-2"></path>
        <path d="M30.2380221,25.1525931 C27.4414606,29.7797837 22.2761697,32.6318883 16.6830467,32.6318883 L16.6830467,28.6429309 C20.7839746,28.6429309 24.5822895,26.5487282 26.627536,23.1581143 L30.2380221,25.1525931 Z" id="path-3"></path>
        <path d="M17.7257371,32.6318883 C12.1326141,32.6318883 6.96732319,29.7797837 4.17076167,25.1525931 L7.78124781,23.1581143 C9.8264943,26.5487282 13.6248092,28.6429309 17.7257371,28.6429309 L17.7257371,32.6318883 Z" id="path-4"></path>
        <path d="M4.00111003,25.2633974 C1.44680444,20.3791406 1.44680444,14.3580309 4.00111003,9.47377404 L7.29883292,11.5790572 C5.43075868,15.1580385 5.43075868,19.579133 7.29883292,23.1581143 L4.00111003,25.2633974 Z" id="path-5"></path>
        <path d="M4.17076167,9.58457841 C6.96732319,4.95738772 12.1326141,2.10528312 17.7257371,2.10528312 L17.7257371,6.09424061 C13.6248092,6.09424061 9.8264943,8.18844329 7.78124781,11.5790572 L4.17076167,9.58457841 Z" id="path-6"></path>
    </defs>
    <g id="Page-1" stroke="none" stroke-width="1" fill="none" fill-rule="evenodd">
        <g id="4-artboard" transform="translate(-731.000000, -365.000000)">
            <g id="Group-6" transform="translate(725.000000, 358.000000)">
                <g id="colors">
                    <g id="Segments-circle" transform="translate(24.500000, 24.500000) rotate(-30.000000) translate(-24.500000, -24.500000) translate(7.000000, 7.000000)">
                        <path d="M17.1066397,2.41051623e-12 C23.2194122,2.41051623e-12 28.8646033,3.30426753 31.9209896,8.66503723 C34.9773759,14.0258069 34.9773759,20.634342 31.9209896,25.9951117 C28.8646033,31.3558814 23.2194122,34.6601489 17.1066397,34.6601489 C10.9938671,34.6601489 5.348676,31.3558814 2.29228972,25.9951117 C-0.764096572,20.634342 -0.764096572,14.0258069 2.29228972,8.66503723 C5.348676,3.30426753 10.9938671,2.41051623e-12 17.1066397,2.41051623e-12 L17.1066397,4.62135319 C12.6247001,4.62135319 8.47348885,7.04756361 6.23822126,10.9757138 C4.00295368,14.903864 4.00295368,19.7562849 6.23822126,23.6844351 C8.47348885,27.6125853 12.6247001,30.0387957 17.1066397,30.0387957 C21.5885793,30.0387957 25.7397905,27.6125853 27.9750581,23.6844351 C30.2103256,19.7562849 30.2103256,14.903864 27.9750581,10.9757138 C25.7397905,7.04756361 21.5885793,4.62135319 17.1066397,4.62135319 L17.1066397,2.41051623e-12 Z" id="Base-plate" fill-opacity="0.002" fill="#455A64"></path>
                        <g id="Segment-1">
                            <use fill="#83AF54" fill-rule="evenodd" xlink:href="#path-1"></use>
                            <path stroke="#FFFFFF" stroke-width="0.5231061" d="M16.9445997,2.36895 C22.2511235,2.45474654 27.1360441,5.14704207 29.8712992,9.48835324 L26.7189484,11.2297522 C24.6424964,7.95757475 20.9494596,5.92064522 16.9445997,5.83546809 L16.9445997,2.36895 Z"></path>
                        </g>
                        <g id="Segment-2">
                            <use fill="#3B69C4" fill-rule="evenodd" xlink:href="#path-2"></use>
                            <path stroke="#FFFFFF" stroke-width="0.5231061" d="M30.3059121,9.84904752 C32.6471625,14.5260065 32.6471625,20.211165 30.3059121,24.8881239 L27.4507431,23.0653695 C29.2131651,19.521091 29.2131651,15.2160805 27.4507431,11.671802 L30.3059121,9.84904752 Z"></path>
                        </g>
                        <g id="Segment-3">
                            <use fill="#874CD3" fill-rule="evenodd" xlink:href="#path-3"></use>
                            <path stroke="#FFFFFF" stroke-width="0.5231061" d="M29.8712992,25.2488182 C27.1360441,29.5901294 22.2511235,32.2824249 16.9445997,32.3682215 L16.9445997,28.9017034 C20.9494596,28.8165262 24.6424964,26.7795967 26.7189484,23.5074193 L29.8712992,25.2488182 Z"></path>
                        </g>
                        <g id="Segment-4">
                            <use fill="#E03636" fill-rule="evenodd" xlink:href="#path-4"></use>
                            <path stroke="#FFFFFF" stroke-width="0.5231061" d="M17.4641841,32.3682215 C12.1576603,32.2824249 7.27273967,29.5901294 4.53748459,25.2488182 L7.6898354,23.5074193 C9.76628733,26.7795967 13.4593242,28.8165262 17.4641841,28.9017034 L17.4641841,32.3682215 Z"></path>
                        </g>
                        <g id="Segment-5">
                            <use fill="#F28840" fill-rule="evenodd" xlink:href="#path-5"></use>
                            <path stroke="#FFFFFF" stroke-width="0.5231061" d="M4.1028717,24.8881239 C1.76162128,20.211165 1.76162128,14.5260065 4.1028717,9.84904752 L6.95804072,11.671802 C5.19561869,15.2160805 5.19561869,19.521091 6.95804072,23.0653695 L4.1028717,24.8881239 Z"></path>
                        </g>
                        <g id="Segment-6">
                            <use fill="#FFDA00" fill-rule="evenodd" xlink:href="#path-6"></use>
                            <path stroke="#FFFFFF" stroke-width="0.5231061" d="M4.53748459,9.48835324 C7.27273967,5.14704207 12.1576603,2.45474654 17.4641841,2.36895 L17.4641841,5.83546809 C13.4593242,5.92064522 9.76628733,7.95757475 7.6898354,11.2297522 L4.53748459,9.48835324 Z"></path>
                        </g>
                    </g>
                </g>
                <g id="Group-5" transform="translate(17.000000, 17.000000)" stroke="#3B73B4" stroke-width="2" stroke-linecap="round">
                    <path d="M7,0.435532602 L7,14.9529238" id="Path-8"></path>
                    <path d="M14.7802638,8 L0.036038339,8" id="Path-8"></path>
                </g>
            </g>
        </g>
    </g>
</svg>