<svg xmlns="http://www.w3.org/2000/svg" width="30" height="30">
  <path fill-rule="evenodd" d="M15.042 29.916c-8.248 0-14.958-6.71-14.958-14.958C.084 6.71 6.794 0 15.042 0 23.29 0 30 6.71 30 14.958c0 8.248-6.71 14.958-14.958 14.958zm0-28.655c-7.552 0-13.697 6.15-13.697 13.7 0 7.556 6.144 13.7 13.697 13.7 7.553 0 13.697-6.144 13.697-13.697 0-7.552-6.15-13.696-13.7-13.696zm4.378 10.42c.302-.302.302-.792 0-1.094-.302-.3-.792-.3-1.094 0l-3.284 3.285-3.284-3.284c-.302-.3-.792-.3-1.094 0-.302.303-.302.793 0 1.095l3.283 3.284-3.283 3.283c-.302.302-.302.792 0 1.094.302.3.792.3 1.094 0l3.284-3.283 3.284 3.283c.302.3.792.3 1.094 0 .302-.305.302-.795 0-1.097l-3.283-3.284 3.283-3.286z"/>
</svg>
