<?xml version="1.0" encoding="UTF-8"?>
<svg width="35px" height="23px" viewBox="0 0 35 23" version="1.1" xmlns="http://www.w3.org/2000/svg" xmlns:xlink="http://www.w3.org/1999/xlink">
    <!-- Generator: Sketch 43.1 (39012) - http://www.bohemiancoding.com/sketch -->
    <title>Shape</title>
    <desc>Created with Sketch.</desc>
    <defs></defs>
    <g id="Page-1" stroke="none" stroke-width="1" fill="none" fill-rule="evenodd">
        <g id="2-artboard" transform="translate(-403.000000, -93.000000)" fill="#FF7500">
            <g id="pochta-copy-3" transform="translate(403.000000, 93.000000)">
                <path d="M31.9630635,22.9372743 L3.18852202,22.9372743 C1.60105566,22.9372743 0.311067875,21.6584561 0.311067875,20.0877633 L0.311067875,2.99069693 C0.311067875,1.41864652 1.60105566,0.141185874 3.18852202,0.141185874 L31.9630635,0.141185874 C33.549159,0.141185874 34.8405176,1.41864652 34.8405176,2.99069693 L34.8405176,20.0877633 C34.8405176,21.6584561 33.549159,22.9372743 31.9630635,22.9372743 L31.9630635,22.9372743 Z M3.18852202,1.56526263 C2.39478884,1.56526263 1.74910951,2.20467173 1.74910951,2.99069693 L1.74910951,20.0877633 C1.74910951,20.8737885 2.39478884,21.5131976 3.18852202,21.5131976 L31.9630635,21.5131976 C32.7567967,21.5131976 33.402476,20.875146 33.402476,20.0877633 L33.402476,2.99069693 C33.402476,2.20467173 32.7581675,1.56526263 31.9630635,1.56526263 L3.18852202,1.56526263 L3.18852202,1.56526263 Z M29.8053156,17.9509694 C29.6833083,17.9509694 29.5613009,17.9197456 29.4488896,17.857298 L24.4136876,15.0077869 C24.0682286,14.8109412 23.948963,14.3765232 24.1449973,14.0357765 C24.3437733,13.6923147 24.7851931,13.5796375 25.1265395,13.7696954 L30.1617416,16.6192065 C30.5072006,16.8160522 30.6264662,17.2504702 30.4304319,17.5912169 C30.2974576,17.820644 30.0534429,17.9509694 29.8053156,17.9509694 L29.8053156,17.9509694 Z M5.34764078,17.9509694 C5.09814262,17.9509694 4.85549879,17.8220015 4.7225245,17.5925745 C4.52511935,17.2518278 4.64575583,16.8160522 4.98984396,16.620564 L10.025046,13.771053 C10.3691341,13.5755648 10.8078122,13.6950298 11.0065882,14.0357765 C11.2039934,14.3765232 11.0833569,14.8122988 10.7392688,15.0077869 L5.70406674,17.857298 C5.59028461,17.9197456 5.46827726,17.9509694 5.34764078,17.9509694 L5.34764078,17.9509694 Z M17.5757928,15.1014583 C17.4400767,15.1014583 17.3043607,15.0634467 17.1850951,14.9874236 L4.95557223,7.15025 C4.62245105,6.93711363 4.52649022,6.49590777 4.74171666,6.16602155 C4.95831397,5.83613532 5.40247555,5.74110637 5.7369676,5.95424274 L17.5757928,13.5402684 L29.4146179,5.95424274 C29.7449974,5.74382148 30.1932715,5.83477776 30.4098689,6.16602155 C30.6250953,6.49590777 30.5305053,6.93711363 30.1960133,7.15160755 L17.9664904,14.9874236 C17.8485957,15.0634467 17.7115088,15.1014583 17.5757928,15.1014583 L17.5757928,15.1014583 Z" id="Shape"></path>
            </g>
        </g>
    </g>
</svg>