<svg xmlns="http://www.w3.org/2000/svg" viewBox="0 0 21 20">
  <path d="M17.43 9.826c.32 0 .58.26.58.6v8.827c0 .316-.262.58-.58.58h-5.445c-.34 0-.602-.264-.602-.58v-3.358H9.48v3.358c0 .316-.263.58-.58.58H3.43c-.316 0-.578-.264-.578-.58V10.7c0-.317.262-.58.58-.58.338 0 .6.263.6.58v7.95h4.255v-3.358c0-.314.274-.59.613-.59h3.085c.316 0 .58.276.58.59v3.358h4.265v-8.223c0-.34.262-.6.6-.6zm3.272.468c.234.238.218.636 0 .855-.12.097-.264.152-.428.152-.185 0-.328-.055-.426-.153l-9.406-9.495-9.428 9.405c-.236.236-.613.252-.832 0-.25-.217-.236-.595 0-.83L10.016.396c.12-.12.262-.187.426-.187.142 0 .285.065.405.187l3.915 3.94v-2.06c0-.337.262-.6.58-.6.34 0 .613.263.613.6v3.25l4.747 4.767z"/>
</svg>
