<?xml version="1.0" encoding="UTF-8"?>
<svg width="21px" height="20px" viewBox="0 0 21 20" version="1.1" xmlns="http://www.w3.org/2000/svg" xmlns:xlink="http://www.w3.org/1999/xlink">
    <!-- Generator: Sketch 43.1 (39012) - http://www.bohemiancoding.com/sketch -->
    <title>Combined Shape</title>
    <desc>Created with Sketch.</desc>
    <defs></defs>
    <path
        d="M17.4305833,9.82595833 C17.7485,9.82595833 18.0104167,10.0867083 18.0104167,10.427375 L18.0104167,19.252625 C18.0104167,19.569375 17.7485,19.833625 17.4305833,19.833625 L11.9845833,19.833625 C11.6450833,19.833625 11.382875,19.569375 11.382875,19.252625 L11.382875,15.8949583 L9.47916667,15.8949583 L9.47916667,19.252625 C9.47916667,19.569375 9.21725,19.833625 8.9005,19.833625 L3.43058333,19.833625 C3.11383333,19.833625 2.851625,19.569375 2.851625,19.252625 L2.851625,10.7009583 C2.851625,10.3830417 3.11383333,10.1199583 3.43058333,10.1199583 C3.77008333,10.1199583 4.032,10.3830417 4.032,10.7009583 L4.032,18.6500417 L8.28741667,18.6500417 L8.28741667,15.292375 C8.28741667,14.9779583 8.561,14.7023333 8.9005,14.7023333 L11.9845833,14.7023333 C12.3013333,14.7023333 12.5644167,14.9779583 12.5644167,15.292375 L12.5644167,18.6500417 L16.8300417,18.6500417 L16.8300417,10.427375 C16.8300417,10.0867083 17.09225,9.82595833 17.4305833,9.82595833 Z M20.701625,10.2940833 C20.936125,10.532375 20.920375,10.9299167 20.701625,11.1486667 C20.5805833,11.2466667 20.43825,11.302375 20.2743333,11.302375 C20.0885417,11.302375 19.9462083,11.2466667 19.8482083,11.1486667 L10.4419583,1.654625 L1.014125,11.0597083 C0.778166667,11.2956667 0.401041667,11.3117083 0.182291667,11.0597083 C-0.06825,10.8432917 -0.0536666667,10.465 0.182291667,10.2293333 L10.0158333,0.396958333 C10.1354167,0.277083333 10.27775,0.21 10.4419583,0.21 C10.5842917,0.21 10.726625,0.275041667 10.8465,0.396958333 L14.762125,4.335625 L14.762125,2.27791667 C14.762125,1.93958333 15.0243333,1.677375 15.34225,1.677375 C15.6805833,1.677375 15.9550417,1.93958333 15.9550417,2.27791667 L15.9550417,5.52708333 L20.701625,10.2940833 Z"
        id="Combined-Shape"></path>
</svg>
