<svg xmlns="http://www.w3.org/2000/svg" width="20" height="20">
  <path fill="#4990E2" fill-rule="evenodd" d="M9.843 0C4.407 0 0 4.408 0 9.843c0 5.436 4.407 9.845 9.843 9.845s9.845-4.41 9.845-9.845C19.688 4.408 15.278 0 9.842 0zm2.05 15.256c-.507.2-.91.352-1.213.456-.302.105-.652.158-1.052.158-.613 0-1.09-.15-1.43-.45-.34-.298-.51-.678-.51-1.138 0-.18.013-.363.038-.55.026-.186.067-.396.122-.632l.635-2.24c.055-.215.104-.42.142-.61.038-.19.057-.367.057-.527 0-.285-.06-.485-.177-.597-.12-.113-.343-.168-.678-.168-.163 0-.33.024-.504.075-.17.053-.32.1-.44.147l.167-.69c.415-.17.813-.314 1.192-.434.38-.122.737-.182 1.075-.182.61 0 1.08.15 1.41.442.33.294.495.676.495 1.146 0 .098-.012.27-.034.515-.023.245-.066.47-.127.675l-.63 2.234c-.05.18-.093.384-.14.613-.04.223-.06.4-.06.52 0 .292.07.5.2.603.13.107.367.16.69.16.158 0 .33-.026.52-.08.198-.053.338-.1.427-.14l-.17.688zM11.78 6.19c-.293.274-.647.41-1.062.41-.413 0-.77-.136-1.066-.41-.295-.272-.444-.605-.444-.993s.15-.72.444-.997c.296-.277.653-.414 1.066-.414.415 0 .77.137 1.063.414.3.276.448.61.448.997 0 .39-.148.72-.442.994z"/>
</svg>
