<svg xmlns="http://www.w3.org/2000/svg" width="17" height="33">
  <path fill-rule="evenodd" d="M16.768 10.738c.192-1.274-.38-2.1-.767-2.662-.47-.692-1.3-1.142-1.54-1.26-.29-1.343-1.47-1.702-2.13-1.702h-.11c-.97.002-2.1-.524-2.39-.666.01-.75.14-1.17.14-1.17.28-.447.38-.797.29-1.04-.03-.09-.08-.146-.13-.183C10.32.368 8.99.05 8.97.045 8.96.043 8.728.002 8.51.002c-.037 0-.075 0-.102.003-.24-.023-.56.038-.577.042-.01.003-1.34.32-1.14 2.008-.04.037-.09.093-.13.183-.09.243.01.595.28 1.016 0 .005.14.422.15 1.194-.29.142-1.42.666-2.4.666h-.11c-.66 0-1.83.36-2.13 1.706-.22.12-1.02.582-1.5 1.274l-.05.073c-.37.533-.93 1.34-.75 2.58.02.068.4 1.7.7 2.266.1.176-.06.664-.13.872 0 .055-.03.59.15.935.01.206.12.542.47.58.07.063.21.165.44.135.08.033.24.072.42.028.08.018.27.016.44-.042.02.01.05.01.07.01.1 0 .19-.03.24-.1.08-.08.11-.2.1-.37.03-.02.06-.04.09-.07.11-.12.14-.34.08-.64-.03-.07-.41-.71-.87-1-.04-.32-.08-.81-.04-.97.13-.54.25-1.31-.01-1.9.27-.09.83-.31 1.08-.53.26-.23.45-.41.62-.61.08.46.46 1.14 1.65 2.07-.03.38-.14 2.13.24 3.17-.26.54-2.19 4.66-.84 7.35.01.01.31.48.23 1.25-.01.03-.82 2.89.3 5.97 0 .01.35.82 0 1.58-.22.5-.68.86-1.37 1.09-.03.01-.05.03-.07.05-.03.055-.31.52-.16.867.05.11.17.26.45.31 0 0 .68.17 1.59-.91.07-.042.42-.24 1.11-.37.02-.006.22-.04.34-.253.13-.234.09-.58-.13-1.044 0 0-.106-.186-.1-.54.01-.37.04-.49.058-.53.08-.19 1.17-4.646.28-5.81 0 0-.11-.2.08-.65.03-.04.61-.87.89-2.35.28 1.48.858 2.3.877 2.323.2.48.096.68.097.68-.892 1.17.2 5.62.28 5.81.02.04.05.16.06.53.01.35-.1.54-.103.55-.2.45-.24.8-.12 1.04.12.21.32.246.34.25.694.13 1.045.33 1.117.37.698.82 1.27.91 1.49.91.06 0 .1-.01.1-.01.28-.05.4-.19.45-.305.15-.344-.13-.812-.16-.862-.02-.023-.04-.042-.07-.052-.684-.222-1.143-.59-1.364-1.08-.34-.75 0-1.57 0-1.58 1.12-3.07.31-5.927.3-5.93-.082-.797.22-1.27.23-1.29 1.35-2.677-.59-6.79-.85-7.33.39-1.046.277-2.79.24-3.17 1.187-.93 1.57-1.61 1.65-2.066.17.208.35.38.61.61.247.22.81.44 1.078.54-.27.596-.14 1.36-.02 1.906.04.15 0 .646-.04.966-.46.29-.84.93-.86.96-.07.34-.04.56.07.687.03.036.06.06.09.077-.004.17.027.29.1.38.06.07.15.1.247.1.026 0 .05-.002.07-.01.17.058.36.06.44.04.18.05.348.01.42-.03.23.03.37-.07.43-.13.2-.014.34-.13.42-.323.04-.1.06-.2.06-.25.187-.345.16-.88.158-.9-.073-.24-.23-.73-.14-.905.307-.57.684-2.198.7-2.277z"/>
</svg>
