<?xml version="1.0" encoding="UTF-8"?>
<svg width="40px" height="40px" viewBox="0 0 40 40" version="1.1" xmlns="http://www.w3.org/2000/svg" xmlns:xlink="http://www.w3.org/1999/xlink">
    <!-- Generator: Sketch 43.1 (39012) - http://www.bohemiancoding.com/sketch -->
    <title>33962</title>
    <desc>Created with Sketch.</desc>
    <defs></defs>
    <g id="Page-1" stroke="none" stroke-width="1" fill="none" fill-rule="evenodd">
        <g id="9-artboard" transform="translate(-119.000000, -627.000000)" fill="#696969">
            <g id="Group-2" transform="translate(119.000000, 627.000000)">
                <g id="33962">
                    <g id="Capa_1">
                        <path d="M20,2.5 C29.6484375,2.5 37.5,10.3515625 37.5,20 C37.5,29.6484375 29.6484375,37.5 20,37.5 C10.3515625,37.5 2.5,29.6484375 2.5,20 C2.5,10.3515625 10.3515625,2.5 20,2.5 L20,2.5 Z M20,0 C8.95507812,0 0,8.95507812 0,20 C0,31.0449219 8.95507812,40 20,40 C31.0449219,40 40,31.0449219 40,20 C40,8.95507812 31.0449219,0 20,0 L20,0 Z M31.1499219,26.6870312 L31.0375781,26.3452344 C30.7739063,25.5591406 29.9047656,24.7388281 29.1039844,24.5190625 L26.1475,23.7109375 C25.3467188,23.4936719 24.2041406,23.7866406 23.6158594,24.375 L22.5464844,25.444375 C18.6597656,24.3921094 15.6104688,21.3428125 14.560625,17.4560937 L15.63,16.3867187 C16.2159375,15.8007812 16.5089063,14.6582031 16.2916406,13.855 L15.4858594,10.8984375 C15.2685938,10.0976562 14.4433594,9.22851562 13.6572656,8.96484375 L13.3203125,8.8525 C12.5317188,8.58882812 11.40625,8.85492187 10.8203125,9.44335937 L9.21875,11.0449219 C8.933125,11.328125 8.75,12.1410937 8.75,12.1435937 C8.69625,17.2266406 10.6885156,22.1216406 14.2822656,25.7178125 C17.86625,29.3017969 22.7442188,31.2916406 27.8100781,31.2475781 C27.8369531,31.2475781 28.674375,31.069375 28.96,30.7836719 L30.5615625,29.1821094 C31.1475,28.5985937 31.4110938,27.473125 31.1499219,26.6870312 Z" id="Shape"></path>
                    </g>
                </g>
            </g>
        </g>
    </g>
</svg>