<?xml version="1.0" encoding="UTF-8" standalone="no"?>
<svg width="13px" height="34px" viewBox="0 0 13 34" version="1.1" xmlns="http://www.w3.org/2000/svg" xmlns:xlink="http://www.w3.org/1999/xlink">
    <!-- Generator: Sketch 40.1 (33804) - http://www.bohemiancoding.com/sketch -->
    <title>men</title>
    <desc>Created with Sketch.</desc>
    <defs></defs>
    <g id="Page-1" stroke="none" stroke-width="1" fill="none" fill-rule="evenodd">
        <g id="Artboard" transform="translate(-34.000000, -83.000000)" fill="#7E96C9">
            <g id="Group-3">
                <g id="Group-+-men-+-woomen-Copy-18" transform="translate(29.000000, 83.000000)">
                    <g id="men" transform="translate(4.296846, 0.000000)">
                        <path d="M12.1853846,32.0465179 C12.1853846,32.0465179 11.5138462,31.4431696 11.3569231,31.1927232 C11.26,31.0401786 11.1053846,30.5165179 11.1053846,30.5165179 C11.1053846,30.5165179 10.9784615,27.8754464 10.9253846,26.9943304 C10.9,26.5913393 10.8376923,25.7808036 10.75,25.3846429 C10.6392308,24.8905804 10.0946154,23.4721429 10.0946154,23.4721429 C10.0946154,23.4721429 9.79,21.5778571 9.69769231,20.9471875 C9.55230769,19.9522321 9.36307692,17.9463839 9.15769231,16.9628125 C9.01692308,16.2934375 8.40076923,14.3308482 8.40076923,14.3308482 L8.29230769,12.0540625 L9.19461538,9.24450893 C9.19461538,9.24450893 9.49230769,10.0391071 9.59153846,10.2053125 C9.76461538,10.4967411 10.2492308,10.5946429 10.2492308,11.4848661 C10.2492308,12.0722768 10.3484615,13.4429018 10.3484615,13.4429018 L10.4915385,15.2210714 C10.4915385,15.2210714 9.80615385,16.1454464 9.80615385,16.2524554 C9.80615385,16.3594643 10.0923077,16.915 10.0946154,17.1517857 C10.0969231,17.4773661 9.48538462,18.1103125 9.66076923,18.3858036 C9.72769231,18.4905357 10.0623077,18.4563839 10.1661538,18.3858036 C10.3253846,18.2765179 10.6,17.7460268 10.6,17.7460268 C10.6,17.7460268 10.9069231,17.1722768 10.96,16.9628125 C11.0430769,16.6440625 11.0684615,15.6468304 11.0684615,15.6468304 L11.3569231,12.3386607 L10.9946154,10.0254464 L10.7776923,9.06464286 C10.7776923,9.06464286 9.83384615,6.48959821 9.19,5.86348214 C8.74230769,5.42633929 6.91,4.79566964 6.91,4.79566964 L6.55692308,3.941875 C6.55692308,3.941875 6.87076923,3.34080357 6.91692308,3.12450893 C7,2.74428571 6.93307692,2.07263393 6.79461538,1.56946429 C6.66307692,1.09589286 6.18076923,0.78625 6.01461538,0.740714286 C4.86076923,0.4196875 4.37615385,0.982053571 4.14076923,1.30991071 C3.78076923,1.80852679 3.74846154,2.20696429 3.74153846,2.61450893 C3.70923077,4.22647321 4.68307692,4.29477679 4.68307692,4.29477679 L4.78461538,4.83892857 C4.78461538,4.83892857 3.90769231,5.15995536 3.62846154,5.29200893 C3.42307692,5.38991071 2.98923077,5.6471875 2.84384615,5.75419643 C2.70076923,5.86120536 2.09384615,6.33022321 1.92769231,6.73549107 C1.83307692,6.96772321 1.66230769,7.88982143 1.61846154,8.13799107 C1.49846154,8.82558036 1.02076923,10.1529464 0.935384615,10.8450893 C0.866153846,11.3915179 0.863846154,12.5048661 0.935384615,13.0512946 C1.02769231,13.7457143 1.18461538,14.2853125 1.34615385,14.9683482 C1.42461538,15.2962054 1.87230769,16.3230357 1.87230769,16.3230357 C1.87230769,16.3230357 1.79846154,17.5912054 1.83538462,17.7460268 C1.89076923,17.9691518 2.07076923,18.4404464 2.26923077,18.5633929 C2.66615385,18.8115625 2.98923077,18.6339732 2.98923077,18.6339732 C2.98923077,18.6339732 3.06076923,20.8401786 3.74615385,23.7203125 C3.85,24.1551786 3.69076923,25.0613393 3.60307692,25.4984821 C3.42307692,26.3887054 3.92384615,28.2124107 4.25153846,29.0548214 C4.79153846,30.4413839 4.66230769,31.2564732 4.38769231,31.6366964 C4.02769231,32.1353125 3.48307692,32.2946875 3.20615385,32.5405804 C3.00076923,32.7227232 2.68461538,33.3511161 2.84615385,33.5719643 C2.95,33.7176786 3.4,33.6379911 3.56615385,33.5719643 C3.93076923,33.4308036 4.58846154,33.0004911 4.93692308,32.8251786 C5.18615385,32.6999554 5.69384615,32.4722768 5.94769231,32.3516071 C6.45307692,32.1125446 5.58769231,31.0447321 5.58769231,31.0447321 C5.58769231,31.0447321 5.66384615,29.6035268 5.62461538,29.2665625 C5.56692308,28.7725 5.68,27.7183482 5.66153846,27.2037946 C5.64538462,26.7916964 5.51846154,26.1541964 5.48153846,25.5667857 C5.46076923,25.2525893 5.26461538,24.3213839 5.26461538,24.3213839 L5.19307692,23.5745982 C5.19307692,23.5745982 5.28307692,22.2130804 5.33615385,21.76 C5.42384615,21.0359821 5.80461538,18.8775893 5.80461538,18.8775893 C5.80461538,18.8775893 5.83230769,18.3220536 5.98461538,18.2719643 C6.08153846,18.2491964 6.30769231,18.5292411 6.30769231,18.5292411 C6.30769231,18.5292411 8.14,22.3770089 8.57846154,23.7225893 C8.66846154,24.0003571 8.83,24.8609821 8.83,24.8609821 C8.83,24.8609821 8.79769231,25.5713393 8.82307692,26.2111161 C8.84846154,26.8850446 9.51538462,27.7069643 9.51538462,27.7069643 L10.0923077,30.5529464 C10.0923077,30.5529464 9.63538462,31.2132143 9.62384615,31.4431696 C9.58692308,32.1535268 10.9946154,32.3584375 10.9946154,32.3584375 C10.9946154,32.3584375 11.9269231,33.011875 12.2915385,33.0938393 C12.4553846,33.1302679 12.8938462,33.0483036 12.9423077,32.9390179 C12.9861538,32.8388393 12.1853846,32.0465179 12.1853846,32.0465179 L12.1853846,32.0465179 Z M3.09769231,16.9628125 C3.09769231,16.9628125 2.58307692,16.1454464 2.48846154,15.8403571 C2.31769231,15.2802679 2.33153846,14.0917857 2.26692308,13.5112054 C2.22076923,13.0786161 1.94153846,11.8036161 1.94153846,11.8036161 C1.94153846,11.8036161 2.56692308,10.7562946 2.71692308,10.380625 C2.82769231,10.1074107 3.02384615,9.24223214 3.02384615,9.24223214 C3.02384615,9.24223214 3.43230769,9.88883929 3.49230769,10.1324554 C3.54307692,10.3396429 3.87076923,12.0130804 3.88923077,12.3728125 C3.95384615,13.53625 3.09769231,16.9628125 3.09769231,16.9628125 L3.09769231,16.9628125 Z" id="Shape"></path>
                    </g>
                </g>
            </g>
        </g>
    </g>
</svg>