<svg xmlns="http://www.w3.org/2000/svg" viewBox="0 0 22 19">
  <path fill-rule="evenodd" d="M17.635 18.322H2.78C1.39 18.322.26 17.194.26 15.806V5.468c0-1.388 1.13-2.517 2.517-2.517h4.236L14.08.35c.078-.03.165-.026.242.01.076.037.134.103.16.184l.3.907 1.853-.586c.08-.026.17-.017.244.024.075.04.13.112.15.195l.485 1.868h.12c1.387 0 2.515 1.13 2.515 2.518v2.59c.603.167 1.045.72 1.045 1.374v2.41c0 .654-.442 1.207-1.044 1.375v2.59c0 1.387-1.127 2.515-2.515 2.515zM2.78 3.574c-1.046 0-1.895.85-1.895 1.894v10.338c0 1.045.85 1.894 1.894 1.894h14.854c1.045 0 1.893-.85 1.893-1.894V13.27h-5.56c-.748 0-1.356-.61-1.356-1.356V9.358c0-.748.61-1.356 1.357-1.356h5.56V5.468c0-1.045-.85-1.894-1.893-1.894H2.78zm10.456 8.268c0 .444.36.805.805.805h5.727c.444 0 .805-.36.805-.805v-2.41c0-.444-.36-.805-.805-.805H14.04c-.443 0-.804.36-.804.805v2.41zm2.043-8.89h1.592l-.36-1.395-1.533.486.3.908zm-6.462 0h5.804l-.334-1.008v-.01l-.295-.89-5.175 1.907zm6.236 8.865c-.65 0-1.18-.53-1.18-1.18 0-.65.53-1.18 1.18-1.18.65 0 1.18.53 1.18 1.18 0 .65-.53 1.18-1.18 1.18zm0-1.736c-.306 0-.556.25-.556.557 0 .307.25.556.556.556.307 0 .556-.25.556-.556 0-.307-.25-.556-.556-.556z"/>
</svg>
