<?xml version="1.0" encoding="UTF-8" standalone="no"?>
<svg width="22px" height="22px" viewBox="0 0 22 22" version="1.1" xmlns="http://www.w3.org/2000/svg" xmlns:xlink="http://www.w3.org/1999/xlink">
    <!-- Generator: Sketch 40.1 (33804) - http://www.bohemiancoding.com/sketch -->
    <title>Segments circle</title>
    <desc>Created with Sketch.</desc>
    <defs>
        <path d="M11,-1.25055521e-12 C14.93,-1.25055521e-12 18.57,2.1 20.53,5.5 L17.06,7.5 C15.81,5.33 13.5,4 11,4 L11,-1.25055521e-12 Z" id="path-1"></path>
        <mask id="mask-2" maskContentUnits="userSpaceOnUse" maskUnits="objectBoundingBox" x="0" y="0" width="9.53" height="7.5" fill="white">
            <use xlink:href="#path-1"></use>
        </mask>
        <path d="M20.53,5.5 C22.49,8.9 22.49,13.1 20.53,16.5 L17.06,14.5 C18.31,12.33 18.31,9.67 17.06,7.5 L20.53,5.5 Z" id="path-3"></path>
        <mask id="mask-4" maskContentUnits="userSpaceOnUse" maskUnits="objectBoundingBox" x="0" y="0" width="4.94" height="11" fill="white">
            <use xlink:href="#path-3"></use>
        </mask>
        <path d="M20.53,16.5 C18.57,19.9 14.93,22 11,22 L11,18 C13.5,18 15.81,16.67 17.06,14.5 L20.53,16.5 Z" id="path-5"></path>
        <mask id="mask-6" maskContentUnits="userSpaceOnUse" maskUnits="objectBoundingBox" x="0" y="0" width="9.53" height="7.5" fill="white">
            <use xlink:href="#path-5"></use>
        </mask>
        <path d="M11,22 C7.07,22 3.43,19.9 1.47,16.5 L4.94,14.5 C6.19,16.67 8.5,18 11,18 L11,22 Z" id="path-7"></path>
        <mask id="mask-8" maskContentUnits="userSpaceOnUse" maskUnits="objectBoundingBox" x="0" y="0" width="9.53" height="7.5" fill="white">
            <use xlink:href="#path-7"></use>
        </mask>
        <path d="M1.47,16.5 C-0.49,13.1 -0.49,8.9 1.47,5.5 L4.94,7.5 C3.69,9.67 3.69,12.33 4.94,14.5 L1.47,16.5 Z" id="path-9"></path>
        <mask id="mask-10" maskContentUnits="userSpaceOnUse" maskUnits="objectBoundingBox" x="0" y="0" width="4.94" height="11" fill="white">
            <use xlink:href="#path-9"></use>
        </mask>
        <path d="M1.47,5.5 C3.43,2.1 7.07,9.09494702e-13 11,9.09494702e-13 L11,4 C8.5,4 6.19,5.33 4.94,7.5 L1.47,5.5 Z" id="path-11"></path>
        <mask id="mask-12" maskContentUnits="userSpaceOnUse" maskUnits="objectBoundingBox" x="0" y="0" width="9.53" height="7.5" fill="white">
            <use xlink:href="#path-11"></use>
        </mask>
    </defs>
    <g id="Page-1" stroke="none" stroke-width="1" fill="none" fill-rule="evenodd">
        <g id="Artboard-Copy-7" transform="translate(-351.000000, -127.000000)">
            <g id="Segments-circle" transform="translate(362.000000, 138.000000) rotate(-30.000000) translate(-362.000000, -138.000000) translate(351.000000, 127.000000)">
                <path d="M11,-1.13686838e-12 C14.93,-1.13686838e-12 18.57,2.1 20.53,5.5 C22.49,8.9 22.49,13.1 20.53,16.5 C18.57,19.9 14.93,22 11,22 C7.07,22 3.43,19.9 1.47,16.5 C-0.49,13.1 -0.49,8.9 1.47,5.5 C3.43,2.1 7.07,-1.13686838e-12 11,-1.13686838e-12 L11,4 C8.5,4 6.19,5.33 4.94,7.5 C3.69,9.67 3.69,12.33 4.94,14.5 C6.19,16.67 8.5,18 11,18 C13.5,18 15.81,16.67 17.06,14.5 C18.31,12.33 18.31,9.67 17.06,7.5 C15.81,5.33 13.5,4 11,4 L11,-1.13686838e-12 Z" id="Base-plate" fill-opacity="0.002" fill="#455A64"></path>
                <use id="Segment-1" stroke="#FFFFFF" mask="url(#mask-2)" stroke-width="1.10000002" fill="#83AF54" xlink:href="#path-1"></use>
                <use id="Segment-2" stroke="#FFFFFF" mask="url(#mask-4)" stroke-width="1.10000002" fill="#3B69C4" xlink:href="#path-3"></use>
                <use id="Segment-3" stroke="#FFFFFF" mask="url(#mask-6)" stroke-width="1.10000002" fill="#874CD3" xlink:href="#path-5"></use>
                <use id="Segment-4" stroke="#FFFFFF" mask="url(#mask-8)" stroke-width="1.10000002" fill="#E03636" xlink:href="#path-7"></use>
                <use id="Segment-5" stroke="#FFFFFF" mask="url(#mask-10)" stroke-width="1.10000002" fill="#F28840" xlink:href="#path-9"></use>
                <use id="Segment-6" stroke="#FFFFFF" mask="url(#mask-12)" stroke-width="1.10000002" fill="#FFDA00" xlink:href="#path-11"></use>
            </g>
        </g>
    </g>
</svg>