<?xml version="1.0" encoding="UTF-8" standalone="no"?>
<svg width="25px" height="24px" viewBox="0 0 25 24" version="1.1" xmlns="http://www.w3.org/2000/svg" xmlns:xlink="http://www.w3.org/1999/xlink">
    <!-- Generator: Sketch 40.1 (33804) - http://www.bohemiancoding.com/sketch -->
    <title>Group 2</title>
    <desc>Created with Sketch.</desc>
    <defs></defs>
    <g id="Page-1" stroke="none" stroke-width="1" fill="none" fill-rule="evenodd">
        <g id="Artboard-Copy-7" transform="translate(-408.000000, -125.000000)" fill="#3771B7">
            <g id="Group-2" transform="translate(408.000000, 125.000000)">
                <path d="M3.09127907,23.1877907 C2.95581395,23.1877907 2.77965116,23.1215116 2.69127907,22.9348837 L0.615697674,18.5656977 C0.547093023,18.4215116 0.575581395,18.2912791 0.598255814,18.2273256 C0.621511628,18.1627907 0.681395349,18.0447674 0.825,17.9761628 C0.885465116,17.947093 0.949418605,17.9331395 1.01395349,17.9331395 C1.1494186,17.9331395 1.32674419,17.9994186 1.41511628,18.1866279 L2.97848837,21.4843023 L5.32383721,14.897093 L4.48953488,14.4168605 C1.25813953,12.5569767 -0.178488372,8.65523256 1.07267442,5.13953488 C2.16569767,2.06976744 5.08895349,0.00755813954 8.34534884,0.00755813954 C9.22616279,0.00755813954 10.097093,0.15872093 10.9343023,0.456395349 C14.9436047,1.88430233 17.0447674,6.30813953 15.6174419,10.3180233 C15.5383721,10.5377907 15.45,10.7540698 15.3523256,10.9662791 C14.905814,10.7569767 14.5273256,10.4290698 14.2563953,10.0145349 C14.2767442,9.96104651 14.297093,9.90697674 14.3162791,9.85348837 C14.8843023,8.26046512 14.7959302,6.54011628 14.0686047,5.00930233 C13.3412791,3.47848837 12.0639535,2.32325581 10.4709302,1.75581395 C9.78255814,1.51104651 9.06744186,1.38662791 8.34593023,1.38662791 C5.67209302,1.38662791 3.27209302,3.08081395 2.37383721,5.60174419 C1.80639535,7.19534884 1.89476744,8.91569767 2.62209302,10.4465116 C3.34883721,11.9773256 4.62674419,13.1331395 6.21976744,13.6988372 C6.27732558,13.7197674 6.33546512,13.7395349 6.39476744,13.7587209 C6.69011628,14.330814 7.03488372,14.8784884 7.42325581,15.3936047 C7.31860465,15.380814 7.21395349,15.3656977 7.11046512,15.3482558 L6.15872093,15.1906977 L3.75639535,21.9389535 L7.05174419,20.375 C7.11337209,20.3453488 7.17674419,20.330814 7.24186047,20.330814 C7.37674419,20.330814 7.55232558,20.397093 7.64069767,20.5837209 C7.70930233,20.7284884 7.68081395,20.8581395 7.65813953,20.9226744 C7.63488372,20.9866279 7.575,21.1052326 7.43081395,21.1738372 L3.28023256,23.1459302 C3.21918605,23.1738372 3.15581395,23.1877907 3.09127907,23.1877907 L3.09127907,23.1877907 Z" id="Shape"></path>
                <path d="M22.5674419,22.9854651 C22.4331395,22.9854651 22.2453488,22.9162791 22.1610465,22.7197674 L21.052907,20.1633721 L18.2377907,21.3825581 C18.1796512,21.4081395 18.1238372,21.4197674 18.0633721,21.4197674 C17.9284884,21.4197674 17.7406977,21.3505814 17.6569767,21.1546512 C17.5593023,20.9296512 17.6627907,20.6686047 17.8866279,20.572093 L20.7034884,19.3505814 L19.1825581,15.8436047 L18.2453488,16.0616279 C17.6546512,16.1988372 17.0703488,16.2686047 16.5098837,16.2686047 C15.7488372,16.2686047 14.9965116,16.1581395 14.2744186,15.9389535 C12.0959302,15.2813953 10.327907,13.705814 9.42267442,11.6156977 C8.61627907,9.75290698 8.57209302,7.68313953 9.29767442,5.78837209 L9.32906977,5.70755814 C9.41337209,5.49418605 9.50930233,5.28197674 9.61511628,5.07267442 C10.0331395,5.3127907 10.3994186,5.6244186 10.7034884,5.99883721 C10.6709302,6.07151163 10.6406977,6.14360465 10.6122093,6.21569767 C10.5860465,6.28197674 10.5633721,6.34244186 10.5418605,6.40232558 C9.99302326,7.91918605 10.044186,9.57848837 10.6889535,11.0674419 C11.5372093,13.0273256 13.2988372,14.4186047 15.3994186,14.7912791 C15.7593023,14.855814 16.1343023,14.8895349 16.5087209,14.8895349 C17.3726744,14.8895349 18.2180233,14.7133721 19.022093,14.3674419 C20.5767442,13.6947674 21.7755814,12.4575581 22.3994186,10.8819767 C23.0215116,9.30639535 22.994186,7.58372093 22.322093,6.03081395 C21.55,4.2505814 20.1203488,2.98372093 18.3412791,2.47848837 C18.0709302,1.89360465 17.7575581,1.3622093 17.3994186,0.880232558 C20.1145349,1.19651163 22.4860465,2.93197674 23.5889535,5.48139535 C24.4093023,7.37267442 24.4430233,9.47034884 23.6837209,11.3883721 C23.1023256,12.8546512 22.1046512,14.0901163 20.7976744,14.9604651 L19.9947674,15.4947674 L21.5151163,19.0017442 L24.330814,17.7802326 C24.3860465,17.7569767 24.4447674,17.744186 24.5052326,17.744186 C24.6389535,17.744186 24.8261628,17.8139535 24.9104651,18.0098837 C24.9744186,18.1575581 24.9424419,18.2860465 24.9174419,18.3488372 C24.8918605,18.4122093 24.8284884,18.527907 24.6831395,18.5901163 L21.8639535,19.8104651 L22.9726744,22.3668605 C23.069186,22.5901163 22.9651163,22.8511628 22.7418605,22.9482558 C22.6860465,22.9732558 22.6273256,22.9854651 22.5674419,22.9854651 L22.5674419,22.9854651 Z" id="Shape"></path>
            </g>
        </g>
    </g>
</svg>