<?xml version="1.0" encoding="UTF-8"?>
<svg width="58px" height="52px" viewBox="0 0 58 52" version="1.1" xmlns="http://www.w3.org/2000/svg" xmlns:xlink="http://www.w3.org/1999/xlink">
    <!-- Generator: Sketch 43.1 (39012) - http://www.bohemiancoding.com/sketch -->
    <title>Group 2</title>
    <desc>Created with Sketch.</desc>
    <defs></defs>
    <g id="Page-1" stroke="none" stroke-width="1" fill="none" fill-rule="evenodd">
        <g id="9-artboard" transform="translate(-426.000000, -159.000000)" stroke-width="0.68" stroke="#979797">
            <g id="Group-7" transform="translate(98.000000, 110.000000)">
                <g id="Group-6" transform="translate(0.000000, 1.000000)">
                    <g id="Group-21" transform="translate(329.000000, 49.000000)">
                        <g id="Group-2">
                            <g id="Group">
                                <path d="M21.9178434,0.0474427188 C21.9178434,0.0474427188 23.4054931,1.97798531 27.7267612,1.97798531 C32.0480293,1.97798531 34.3307298,0.0126029814 34.3307298,0.0126029814 L46.4132179,3.88325953 L55.9862016,11.1630418 L49.2403616,22.1201392 L44.4119749,19.6310123 L44.4329223,50.3665521 L12.5191043,50.4042632 L12.6040367,19.3917284 L6.9051882,22.3540632 L0.156491723,11.2133871 L9.88543877,3.7391149 L21.9178434,0.0474427188 Z" id="Path-11"></path>
                                <path d="M44.4830057,19.6534093 C44.4830057,19.2405009 44.2213531,17.9721048 44.3521794,16.1284701 C44.4830057,14.2848354 44.9331772,10.5607919 44.9331772,10.5607919 L46.2459134,3.879648" id="Path-14"></path>
                                <path d="M9.89758729,19.6534093 C9.89758729,19.2405009 10.0253807,18.1297575 10.156207,16.2861228 C10.2870334,14.4424881 11.0644277,10.5376938 11.0644277,10.5376938 L12.6042241,3.80760592" id="Path-14" transform="translate(11.250906, 11.730508) scale(-1, 1) translate(-11.250906, -11.730508) "></path>
                                <path d="M21.9243978,0.0750766429 C21.9243978,0.0750766429 22.1509455,2.92465812 23.289198,4.13053855 C24.4274505,5.33641897 24.9834515,6.10830423 28.1197814,6.10830423 C31.2561114,6.10830423 32.6397064,5.0080535 33.3048261,3.86447351 C33.9699458,2.72089353 34.353842,0.107710206 34.353842,0.107710206" id="Path-2"></path>
                            </g>
                        </g>
                    </g>
                </g>
            </g>
        </g>
    </g>
</svg>