<?xml version="1.0" encoding="UTF-8"?>
<svg width="58px" height="52px" viewBox="0 0 58 52" version="1.1" xmlns="http://www.w3.org/2000/svg" xmlns:xlink="http://www.w3.org/1999/xlink">
    <!-- Generator: Sketch 43.1 (39012) - http://www.bohemiancoding.com/sketch -->
    <title>Group</title>
    <desc>Created with Sketch.</desc>
    <defs></defs>
    <g id="Page-1" stroke="none" stroke-width="1" fill="none" fill-rule="evenodd">
        <g id="9-artboard" transform="translate(-490.000000, -159.000000)" stroke="#979797" stroke-width="0.68">
            <g id="Group-7" transform="translate(98.000000, 110.000000)">
                <g id="Group-6" transform="translate(0.000000, 1.000000)">
                    <g id="Group-21" transform="translate(329.000000, 49.000000)">
                        <g id="Group" transform="translate(64.000000, 0.000000)">
                            <path d="M21.9134067,0.0469972721 C21.9134067,0.0469972721 23.4007553,1.95941372 27.7211486,1.95941372 C32.041542,1.95941372 34.3237805,0.0124846501 34.3237805,0.0124846501 L46.4038228,3.84679903 L55.9748688,11.0582304 L49.2303943,21.91245 L44.4029849,19.4466938 L44.4239281,49.8936531 L12.5165701,49.9310101 L12.6014853,19.2096566 L6.90379043,22.1441776 L0.156460046,11.108103 L9.88343773,3.70400779 L21.9134067,0.0469972721 Z" id="Path-11"></path>
                            <path d="M44.4740014,19.4688805 C44.4740014,19.059849 44.2124017,17.803362 44.3432015,15.9770375 C44.4740014,14.150713 44.9240817,10.461635 44.9240817,10.461635 L46.2365522,3.84322141" id="Path-14"></path>
                            <path d="M9.8955838,19.4688805 C9.8955838,19.059849 10.0233513,17.9595345 10.1541512,16.13321 C10.284951,14.3068855 11.062188,10.4387539 11.062188,10.4387539 L12.6016727,3.77185574" id="Path-14" transform="translate(11.248628, 11.620368) scale(-1, 1) translate(-11.248628, -11.620368) "></path>
                        </g>
                    </g>
                </g>
            </g>
        </g>
    </g>
</svg>