<?xml version="1.0" encoding="UTF-8"?>
<svg width="23px" height="20px" viewBox="0 0 23 20" version="1.1" xmlns="http://www.w3.org/2000/svg" xmlns:xlink="http://www.w3.org/1999/xlink">
    <!-- Generator: Sketch 43.1 (39012) - http://www.bohemiancoding.com/sketch -->
    <title>Shape</title>
    <desc>Created with Sketch.</desc>
    <defs></defs>
    <g id="Page-1" stroke="none" stroke-width="1" fill="none" fill-rule="evenodd">
        <g id="1-artboard" transform="translate(-31.000000, -126.000000)" stroke="#FFFFFF" stroke-width="0.75">
            <path d="M52.6328195,129.857977 L48.7679687,127.530835 C48.2943625,127.245439 47.7543554,127.094444 47.2063482,127.094444 L39.5294473,127.094444 L39.5166471,127.094444 L37.3566187,127.094444 C36.8086115,127.094444 36.2686044,127.245439 35.7949982,127.530835 L31.9309474,129.857977 C31.7965456,129.938452 31.744545,130.112677 31.8109458,130.258693 L33.2061642,133.326704 C33.270965,133.468573 33.4269671,133.537433 33.5701689,133.489314 L36.0022009,132.658843 L36.0022009,144.794825 C36.0022009,144.965731 36.1358027,145.105111 36.3014048,145.105111 L48.2639621,145.105111 C48.4287642,145.105111 48.563166,144.966561 48.563166,144.794825 L48.563166,132.658014 L50.995198,133.488484 C51.1383998,133.537433 51.2944019,133.467743 51.3592027,133.325874 L52.7544211,130.257864 C52.8192219,130.113506 52.7672212,129.939282 52.6328195,129.857977 L52.6328195,129.857977 Z M42.327084,128.688184 C41.1950692,128.688184 40.4766597,127.471101 40.120655,127.095274 L44.4423118,127.095274 C44.0871072,127.470272 43.4590989,128.688184 42.327084,128.688184 L42.327084,128.688184 Z" id="Shape"></path>
        </g>
    </g>
</svg>