<svg xmlns="http://www.w3.org/2000/svg" width="25" height="24">
  <path fill-rule="evenodd" d="M24.812 5.764l-5.107-4.708c-.07-.065-.155-.11-.247-.133L15.953.065c-.245-.06-.5.054-.623.28-.008.014-.837 1.473-2.83 1.473C10.533 1.818 9.702.4 9.67.344 9.545.12 9.292.006 9.047.064l-3.505.86c-.092.02-.176.067-.247.132L.188 5.764c-.207.19-.248.508-.097.748l2.55 4.056c.155.244.46.334.717.21l1.754-.845V23.37c0 .32.254.58.566.58H19.33c.312 0 .565-.26.565-.58V9.932l1.754.846c.253.122.56.032.712-.213L24.91 6.51c.15-.24.11-.557-.097-.748zM21.68 9.51l-2.113-1.018c-.175-.085-.38-.07-.543.036-.164.106-.263.29-.263.49v13.77H6.24V9.018c0-.2-.1-.385-.264-.49-.163-.108-.368-.12-.543-.037L3.32 9.51 1.303 6.298l4.64-4.278 2.996-.732c.46.594 1.59 1.693 3.56 1.693s3.092-1.094 3.56-1.69l2.992.73 4.64 4.28-2.015 3.21z"/>
</svg>
