<?xml version="1.0" encoding="UTF-8"?>
<svg width="103px" height="93px" viewBox="0 0 103 93" version="1.1" xmlns="http://www.w3.org/2000/svg" xmlns:xlink="http://www.w3.org/1999/xlink">
    <!-- Generator: Sketch 43.1 (39012) - http://www.bohemiancoding.com/sketch -->
    <title>Group 2</title>
    <desc>Created with Sketch.</desc>
    <defs></defs>
    <g id="Page-1" stroke-width="0.5" stroke="#000000" fill="none" fill-rule="evenodd">
            <path
                d="M39.9137051,0.0855350352 C39.9137051,0.0855350352 42.6228042,3.56613296 50.4920922,3.56613296 C58.3613801,3.56613296 62.5183145,0.0227220632 62.5183145,0.0227220632 L84.5212486,7.00117423 L101.954225,20.1259792 L89.6696467,39.8806589 L80.8768653,35.3929827 L80.9150118,90.8064486 L22.7980385,90.8744384 L22.9527054,34.9615749 L12.5747611,40.3024032 L0.284980798,20.2167474 L18.0019759,6.74129418 L39.9137051,0.0855350352 Z"
                id="Path-11"></path>
            <path d="M41.155709,4.96217861 C43.1676785,5.90944508 46.1726886,6.65294187 50.6491866,6.65294187 C56.1238157,6.65294187 59.5511714,5.46100802 61.6700655,4.13533017" id="Path-13" stroke-dasharray="0.8877874153852463"></path>
            <path d="M81.0062168,35.4333625 C81.0062168,34.6889252 80.5297316,32.4021189 80.7679742,29.0782083 C81.0062168,25.7542976 81.8260059,19.0401758 81.8260059,19.0401758 L84.2165772,6.99466297" id="Path-14"></path>
            <path
                d="M18.0240991,35.4333625 C18.0240991,34.6889252 18.2568185,32.6863528 18.4950611,29.3624422 C18.7333037,26.0385316 20.1489854,18.998532 20.1489854,18.998532 L22.9530468,6.86477745"
                id="Path-14"
                transform="translate(20.488573, 21.149070) scale(-1, 1) translate(-20.488573, -21.149070) "></path>
            <path d="M99.9976713,18.5748223 L87.5542692,38.674737" id="Path-21" stroke-dasharray="0.8877874153852463"></path>
            <path d="M2.31377776,18.8890721 L14.4835608,39.1191058" id="Path-24" stroke-dasharray="0.8877874153852463"></path>
            <path d="M22.8082635,87.73808 L81.0266272,87.73808" id="Path-25" stroke-dasharray="0.8877874153852463"></path>
            <path
                d="M39.925641,0.135356562 C39.925641,0.135356562 40.3381979,5.27290049 42.4110239,7.44699647 C44.4838499,9.62109246 45.4963609,11.0127335 51.2078055,11.0127335 C56.9192502,11.0127335 59.4388596,9.02907849 60.6500824,6.9673047 C61.8613052,4.90553091 62.5604031,0.194191996 62.5604031,0.194191996"
                id="Path-2"></path>
            <path
                d="M37.3358814,0.979743576 C37.3358814,0.979743576 37.6761666,4.47313269 38.8066318,6.75124635 C39.937097,9.02936 40.8327853,10.9192724 43.1010702,12.1698773 C45.3693551,13.4204821 47.5196858,13.6254209 50.97218,13.6254209 C54.4246742,13.6254209 56.4303201,13.3311029 58.1265129,12.7504901 C59.8227057,12.1698773 62.5130234,10.3582244 63.4904593,7.59844845 C64.4678952,4.83867246 65.3645735,1.06292956 65.3645735,1.06292956"
                id="Path-3"
                stroke-dasharray="0.8877874153852463"></path>
    </g>
</svg>
