<?xml version="1.0" encoding="UTF-8" standalone="no"?>
<svg width="72px" height="79px" viewBox="0 0 72 79" version="1.1" xmlns="http://www.w3.org/2000/svg" xmlns:xlink="http://www.w3.org/1999/xlink">
    <!-- Generator: Sketch 40.1 (33804) - http://www.bohemiancoding.com/sketch -->
    <title>Shape</title>
    <desc>Created with Sketch.</desc>
    <defs></defs>
    <g id="Page-1" stroke="none" stroke-width="1" fill="none" fill-rule="evenodd" fill-opacity="0.22">
        <g id="Artboard-Copy-16" transform="translate(-322.000000, -326.000000)" fill="#030104">
            <g id="Group-5" transform="translate(180.000000, 137.000000)">
                <path d="M142.288949,231.834155 C142.288949,230.815786 143.1108,230.00572 144.121716,230.00572 L153.463042,230.00572 C154.473958,230.00572 155.29581,230.815786 155.29581,231.834155 C155.29581,244.22045 165.385677,254.307702 177.779043,254.307702 C190.17241,254.307702 200.262277,244.22045 200.262277,231.834155 C200.262277,219.436287 190.176268,209.360608 177.779043,209.360608 C176.467168,209.360608 175.155292,209.468617 173.85885,209.703922 L173.85885,216.057154 C173.85885,216.801643 173.411269,217.472841 172.736039,217.750578 C172.037658,218.032172 171.25825,217.870159 170.725783,217.349402 L152.081715,204.723944 C151.371758,204.010315 151.371758,202.86465 152.081715,202.15102 L170.729641,189.544849 C171.254391,189.020235 172.0338,188.865937 172.732181,189.143674 C173.407411,189.429126 173.854992,190.092608 173.854992,190.83324 L173.854992,196.569279 C175.166868,196.422696 176.478743,196.349404 177.775185,196.349404 C197.341424,196.349404 213.26528,212.269131 213.26528,231.830297 C213.26528,251.387606 197.341424,267.307333 177.775185,267.307333 C158.212804,267.31119 142.288949,251.391464 142.288949,231.834155 L142.288949,231.834155 Z" id="Shape"></path>
            </g>
        </g>
    </g>
</svg>