<svg xmlns="http://www.w3.org/2000/svg" viewBox="0 0 13 34">
  <path fill-rule="evenodd" d="M12.72 16.012l-.917-1.594s.018-1.11 0-1.48c-.02-.334-.11-1.01-.242-1.327-.135-.327-.82-1.213-.82-1.213s-.02-1.054 0-1.404c.03-.588.188-1.783 0-2.353-.066-.2-.387-.544-.582-.683-.117-.082-.42-.177-.53-.264-.175-.136-.4-.496-.437-.683-.02-.114.097-.454.097-.454s.723.284.868.15c.173-.155-.27-.59-.29-.796-.016-.17.086-.527 0-.682-.106-.19-.59-.428-.724-.608-.138-.19-.243-.63-.336-.835-.09-.2-.3-.602-.482-.758C8.15.872 7.655.702 7.407.644c-.312-.076-.998-.09-1.304 0-.377.11-.92.63-1.11.91-.262.386-.482 1.708-.482 1.708s-.296-.027-.385 0c-.158.046-.414.233-.507.342-.093.11-.217.38-.217.493 0 .114.218.304.218.304v.265l.216.304s-.23.193-.145.37c.09.187.435.122.435.122l.19.342H3.64s-.81.063-1.014.19c-.17.104-.387.607-.387.607l-.532 1.822-.578 1.365s-.433 1.103-.532 1.48c-.05.186-.096.584 0 .757.192.345 1.14.962 1.14.962s.415.48.742.624c.23.1.773.31.773.31-.383.804-.612 1.22-.677 1.897-.256 2.652.965 4.44.965 4.44l.387 1.593s-.352 1.877-.29 2.504c.09.88 1.11 3.414 1.11 3.414s-.474 1.756-.483 2.354c-.006.354.046 1.083.24 1.403.075.122.363.333.533.343.185.01.627-.304.627-.304l-.192 1.176s-.145.53 0 .646c.087.068.483 0 .483 0s1.254-.15 1.254-.872c0-.243-.195-.71-.242-.95-.052-.272-.05-.826-.05-1.1 0-.284.05-1.14.05-1.14S7.97 26.647 8.1 26.023c.25-1.187-.093-3.907-.093-3.907s.618-1.018.797-1.365c.207-.406.554-1.244.677-1.67.103-.356.19-1.082.242-1.444.062-.434.16-1.31.146-1.746-.016-.432-.207-1.297-.387-1.707-.166-.386-.725-1.088-.867-1.48-.07-.2-.142-1.575 0-1.753.58-.72.556-1.666.704-1.493.282.323.455.97.455.97s.476 2.35.677 2.806c.187.425.867 1.67.867 1.67s-.012.713 0 .95c.013.26.096 1.038.096 1.038s-.14.683-.05.67c.22-.033.628-.492.628-.492v.457s-.43.323-.385.456c.04.12.497.203.58.19.202-.03.353-.37.483-.492.164-.156.232-.583.24-.785.013-.22-.187-.88-.187-.88zM3.653 12.23s-1.267.396-1.734-.45c-.105-.19.34-1.337.488-1.553.652-.94.983-1.76 1.11-1.722.395.124-.21.738-.155 1.33.05.513.712.977.712.977l-.42 1.418zm2.646 9.056c-.044.31-.288.906-.337 1.215-.033.207-.033.627 0 .836.025.153.17.607.17.607l-.17 3.833c-.49.036-.435-1.518-.435-1.518V23.068s-.034-.655 0-.87c.05-.302.315-.878.386-1.176.255-1.086.388-4.4.388-4.4v2.163c0-.005.083 1.877 0 2.5z"/>
</svg>
