<?xml version="1.0" encoding="UTF-8" standalone="no"?>
<svg width="13px" height="34px" viewBox="0 0 13 34" version="1.1" xmlns="http://www.w3.org/2000/svg" xmlns:xlink="http://www.w3.org/1999/xlink">
    <!-- Generator: Sketch 40.1 (33804) - http://www.bohemiancoding.com/sketch -->
    <title>woomen</title>
    <desc>Created with Sketch.</desc>
    <defs></defs>
    <g id="Page-1" stroke="none" stroke-width="1" fill="none" fill-rule="evenodd">
        <g id="Artboard-Copy-8" transform="translate(-34.000000, -155.000000)" fill="#9B9B9B">
            <g id="woomen" transform="translate(34.000000, 155.000000)">
                <path d="M12.7205455,16.0115714 L11.8025455,14.4184286 C11.8025455,14.4184286 11.8210909,13.3085714 11.8025455,12.9394286 C11.784,12.6042857 11.6943636,11.9291429 11.5614545,11.611 C11.4254545,11.2831429 10.7392727,10.3967143 10.7392727,10.3967143 C10.7392727,10.3967143 10.7207273,9.34271429 10.7392727,8.993 C10.7701818,8.40528571 10.9278182,7.21042857 10.7392727,6.63971429 C10.6743636,6.44057143 10.3529091,6.09571429 10.1581818,5.95728571 C10.0407273,5.87471429 9.73781818,5.78 9.62654545,5.69257143 C9.45345455,5.55657143 9.22781818,5.19714286 9.19072727,5.01014286 C9.16909091,4.896 9.28654545,4.556 9.28654545,4.556 C9.28654545,4.556 10.0098182,4.84014286 10.1550909,4.70657143 C10.3281818,4.55114286 9.88618182,4.11642857 9.86454545,3.91 C9.84909091,3.74 9.95109091,3.383 9.86454545,3.22757143 C9.75945455,3.03814286 9.27418182,2.80014286 9.14127273,2.62042857 C9.00218182,2.431 8.89709091,1.99142857 8.80436364,1.785 C8.71472727,1.58585714 8.50454545,1.18271429 8.32218182,1.02728571 C8.14909091,0.871857143 7.65454545,0.701857143 7.40727273,0.643571429 C7.09509091,0.568285714 6.40890909,0.553714286 6.10290909,0.643571429 C5.72581818,0.752857143 5.18181818,1.275 4.99327273,1.55428571 C4.73054545,1.94042857 4.51109091,3.26157143 4.51109091,3.26157143 C4.51109091,3.26157143 4.21436364,3.23485714 4.12472727,3.26157143 C3.96709091,3.30771429 3.71054545,3.49471429 3.61781818,3.604 C3.52509091,3.71328571 3.40145455,3.98285714 3.40145455,4.097 C3.40145455,4.21114286 3.61781818,4.40057143 3.61781818,4.40057143 L3.61781818,4.66528571 L3.83418182,4.96885714 C3.83418182,4.96885714 3.60545455,5.16314286 3.68890909,5.34042857 C3.77854545,5.52742857 4.12472727,5.46185714 4.12472727,5.46185714 L4.31636364,5.80428571 L3.63945455,5.80428571 C3.63945455,5.80428571 2.82963636,5.86742857 2.62563636,5.99371429 C2.45563636,6.09814286 2.23927273,6.60085714 2.23927273,6.60085714 L1.70763636,8.42228571 L1.12963636,9.78714286 C1.12963636,9.78714286 0.696909091,10.8897143 0.598,11.2661429 C0.548545455,11.4531429 0.502181818,11.8514286 0.598,12.0238571 C0.789636364,12.3687143 1.73854545,12.9855714 1.73854545,12.9855714 C1.73854545,12.9855714 2.15272727,13.4664286 2.48036364,13.6097143 C2.70909091,13.7092857 3.25309091,13.9205714 3.25309091,13.9205714 C2.86981818,14.7244286 2.64109091,15.1397143 2.57618182,15.8172857 C2.31963636,18.4692857 3.54054545,20.2567143 3.54054545,20.2567143 L3.92690909,21.8498571 C3.92690909,21.8498571 3.57454545,23.7271429 3.63636364,24.3537143 C3.726,25.2328571 4.746,27.7682857 4.746,27.7682857 C4.746,27.7682857 4.27309091,29.5241429 4.26381818,30.1215714 C4.25763636,30.4761429 4.31018182,31.2047143 4.50490909,31.5252857 C4.57909091,31.6467143 4.86654545,31.858 5.03654545,31.8677143 C5.222,31.8774286 5.664,31.5641429 5.664,31.5641429 L5.47236364,32.7395714 C5.47236364,32.7395714 5.32709091,33.2714286 5.47236364,33.3855714 C5.55890909,33.4535714 5.95454545,33.3855714 5.95454545,33.3855714 C5.95454545,33.3855714 7.20945455,33.235 7.20945455,32.5137143 C7.20945455,32.2708571 7.01472727,31.8045714 6.96836364,31.5641429 C6.91581818,31.2921429 6.91890909,30.7384286 6.91890909,30.464 C6.91890909,30.1798571 6.96836364,29.325 6.96836364,29.325 C6.96836364,29.325 7.96981818,26.6462857 8.09963636,26.0221429 C8.35,24.8345714 8.00690909,22.1145714 8.00690909,22.1145714 C8.00690909,22.1145714 8.62509091,21.097 8.80436364,20.7497143 C9.01145455,20.3441429 9.35763636,19.5062857 9.48127273,19.0788571 C9.58327273,18.7242857 9.66981818,17.9981429 9.72236364,17.6362857 C9.78418182,17.2015714 9.88309091,16.3272857 9.86763636,15.8901429 C9.85218182,15.4578571 9.66054545,14.5932857 9.48127273,14.1828571 C9.31436364,13.7967143 8.75490909,13.0948571 8.61272727,12.7038571 C8.54163636,12.5022857 8.47054545,11.1277143 8.61272727,10.9504286 C9.19381818,10.2291429 9.16909091,9.28442857 9.31745455,9.45685714 C9.59872727,9.77985714 9.77181818,10.4258571 9.77181818,10.4258571 C9.77181818,10.4258571 10.2478182,12.7767143 10.4487273,13.2332857 C10.6372727,13.6582857 11.3172727,14.9041429 11.3172727,14.9041429 C11.3172727,14.9041429 11.3049091,15.6157143 11.3172727,15.8537143 C11.3296364,16.1135714 11.4130909,16.8907143 11.4130909,16.8907143 C11.4130909,16.8907143 11.274,17.5731429 11.3636364,17.561 C11.5830909,17.527 11.9910909,17.068 11.9910909,17.068 L11.9910909,17.5245714 C11.9910909,17.5245714 11.5614545,17.8475714 11.6047273,17.9811429 C11.6449091,18.1001429 12.1023636,18.1827143 12.1858182,18.1705714 C12.3867273,18.1414286 12.5381818,17.8014286 12.668,17.6775714 C12.8318182,17.5221429 12.8998182,17.0947143 12.9090909,16.8931429 C12.9214545,16.6721429 12.7205455,16.0115714 12.7205455,16.0115714 L12.7205455,16.0115714 Z M3.65181818,12.2302857 C3.65181818,12.2302857 2.38454545,12.6261429 1.91781818,11.7785714 C1.81272727,11.5891429 2.25781818,10.4428571 2.40618182,10.2267143 C3.05836364,9.28685714 3.38909091,8.466 3.51581818,8.50485714 C3.91145455,8.62871429 3.30563636,9.24314286 3.36127273,9.83571429 C3.41072727,10.3481429 4.07218182,10.812 4.07218182,10.812 L3.65181818,12.2302857 L3.65181818,12.2302857 Z M6.29763636,21.2864286 C6.25436364,21.5948571 6.01018182,22.1922857 5.96072727,22.5007143 C5.92672727,22.7071429 5.92672727,23.1272857 5.96072727,23.3361429 C5.98545455,23.4891429 6.13072727,23.9432857 6.13072727,23.9432857 L5.96072727,27.7755714 C5.46927273,27.812 5.52490909,26.2577143 5.52490909,26.2577143 L5.52490909,24.0185714 L5.52490909,23.069 C5.52490909,23.069 5.49090909,22.4132857 5.52490909,22.1971429 C5.57436364,21.896 5.84018182,21.3204286 5.91127273,21.0217143 C6.16472727,19.9361429 6.29763636,16.6211429 6.29763636,16.6211429 L6.29763636,18.785 C6.29763636,18.7801429 6.38109091,20.6622857 6.29763636,21.2864286 L6.29763636,21.2864286 Z" id="Shape"></path>
            </g>
        </g>
    </g>
</svg>