<svg xmlns="http://www.w3.org/2000/svg" viewBox="0 0 21 24">
  <g fill-rule="evenodd">
    <path d="M.913 12.73H4.07c.49 0 .89-.332.89-.825 0-.493-.398-.827-.89-.827H.914c-.49 0-.89.334-.89.827 0 .493.4.826.89.826zm0-.99H4.07c.13 0 .233.036.233.165 0 .128-.104.165-.232.165H.92c-.128 0-.232-.037-.232-.165 0-.13.106-.166.233-.166zM4.96 16.7c0-.493-.398-.827-.89-.827H.914c-.49 0-.89.334-.89.827 0 .493.4.826.89.826H4.07c.49 0 .89-.333.89-.826zm-4.28 0c0-.13.106-.166.233-.166H4.07c.13 0 .233.037.233.166 0 .128-.104.165-.232.165H.92c-.128 0-.232-.037-.232-.165zm.233-9.094h3.16c.49 0 .89-.335.89-.827 0-.5-.4-.83-.89-.83H.91c-.49 0-.89.33-.89.82.002.49.4.82.89.82zm0-.992H4.07c.13 0 .233.036.233.165 0 .12-.104.16-.233.16H.914C.786 6.94.68 6.9.68 6.77s.11-.166.238-.166z"/>
    <path d="M17.472 0H4.77C3.03 0 1.262 1.727 1.262 3.473v1.85c0 .183.212.3.394.3H4.07c.61 0 1.105.543 1.105 1.156 0 .61-.495 1.15-1.104 1.15H1.66c-.182 0-.394.09-.394.27v2.26c0 .18.212.27.394.27h2.41c.61 0 1.105.54 1.105 1.16 0 .61-.495 1.15-1.104 1.15H1.66c-.182 0-.394.11-.394.29v1.92c0 .18.212.27.394.27h2.41c.61 0 1.105.54 1.105 1.15 0 .61-.495 1.156-1.104 1.156H1.66c-.182 0-.394.117-.394.3V20c0 1.747 1.77 3.473 3.506 3.473h12.7c1.737 0 3.517-1.726 3.517-3.473V3.472C20.99 1.728 19.21 0 17.47 0zm2.86 20.005c0 1.387-1.48 2.812-2.86 2.812H4.77c-1.38 0-2.85-1.425-2.85-2.812v-1.487h2.15c.972 0 1.763-.842 1.763-1.82 0-.976-.79-1.817-1.762-1.817H1.92v-1.15h2.15c.973 0 1.763-.84 1.763-1.81 0-.98-.79-1.82-1.762-1.82H1.92V8.6h2.15c.973 0 1.763-.843 1.763-1.82 0-.976-.79-1.818-1.762-1.818H1.92v-1.49C1.92 2.088 3.39.66 4.77.66h12.7c1.38 0 2.86 1.427 2.86 2.813v16.532z"/>
    <path d="M15.44 14.135c-.196-.34-.56-.55-.95-.55-.19 0-.38.05-.544.147-.3.174-.524.27-.847.27-.08 0-.16-.007-.25-.02-.46-.06-1.09-.676-1.6-1.568-.51-.88-.74-1.78-.57-2.192.19-.47.45-.65.77-.833.52-.31.7-.98.4-1.51l-.77-1.33c-.19-.34-.54-.54-.92-.54-.2 0-.39.05-.56.15l-.48.27c-.65.38-.85 1.05-.97 1.71-.26 1.4.22 3.21 1.39 5.234 1.14 1.994 2.5 3.35 3.81 3.827.42.154.79.228 1.12.228.31 0 .6-.07.84-.21l.48-.277c.52-.3.7-.972.4-1.5l-.77-1.33zm.033 2.257l-.478.278c-.32.187-.768.165-1.406-.065-1.15-.415-2.42-1.704-3.47-3.535-1.09-1.887-1.54-3.54-1.31-4.785.12-.708.3-1.06.64-1.258l.48-.277c.07-.042.15-.065.23-.065.15 0 .27.074.35.204l.76 1.32c.12.21.05.48-.16.6-.38.22-.78.49-1.05 1.15-.26.62-.03 1.66.61 2.77.63 1.09 1.41 1.8 2.08 1.89.11.01.22.02.33.02.51 0 .86-.18 1.17-.36.06-.04.14-.06.21-.06.153 0 .3.08.38.22l.76 1.33c.12.21.05.47-.16.59z"/>
  </g>
</svg>
