<svg xmlns="http://www.w3.org/2000/svg" viewBox="0 0 22 16">
  <g fill-rule="evenodd">
    <path d="M6.064 13.976c-.894 0-1.62-.727-1.62-1.622 0-.894.726-1.62 1.62-1.62.894 0 1.62.726 1.62 1.62 0 .895-.726 1.622-1.62 1.622zm0-2.422c-.442 0-.8.36-.8.8 0 .442.358.8.8.8.44 0 .8-.358.8-.8 0-.44-.36-.8-.8-.8z"/>
    <path d="M15.287 15.258c-1.428 0-2.653-1.067-2.868-2.46H8.93c-.216 1.393-1.44 2.46-2.87 2.46-1.427 0-2.653-1.067-2.868-2.46H1.077c-.482 0-.874-.375-.874-.835V9.8c0-.46.392-.833.873-.833H11.55c.163 0 .24-.036.258-.057.005-.005.006-.01.007-.014V2.91l.01-.038c.1-.396.455-.672.862-.672h.44c.3 0 .552-.003.564-.003h2.7c.61 0 1.21.352 1.83 1.076.28.32.52.768.78 1.24.26.468.55.998.9 1.462l.09.117c.46.598 1.16 1.5 1.16 3.232v2.065c0 .77-.63 1.4-1.41 1.4h-1.57c-.21 1.39-1.44 2.46-2.87 2.46zm-2.123-3.282l.05.562c.093 1.065 1.004 1.9 2.074 1.9 1.07 0 1.98-.835 2.073-1.9l.05-.562h2.32c.33 0 .59-.264.59-.587V9.32c0-1.452-.57-2.19-.98-2.73l-.01-.013-.08-.11c-.39-.514-.69-1.07-.96-1.564-.24-.435-.46-.846-.68-1.1-.454-.532-.85-.79-1.204-.79h-2.7c-.05 0-.29.003-.57.003h-.44c-.02 0-.04.01-.05.024v5.813c.005.11-.01.373-.22.606-.197.21-.49.32-.866.32H1.073c-.027 0-.045.01-.05.02v2.15c.005 0 .023.02.052.02H3.94l.05.56c.093 1.06 1.004 1.9 2.074 1.9 1.07 0 1.98-.84 2.074-1.9l.05-.56h4.976z"/>
    <path d="M15.287 13.976c-.893 0-1.62-.727-1.62-1.622 0-.894.727-1.62 1.62-1.62.895 0 1.622.726 1.622 1.62 0 .895-.73 1.622-1.63 1.622zm0-2.422c-.44 0-.8.36-.8.8 0 .442.36.8.8.8.442 0 .8-.358.8-.8 0-.44-.358-.8-.8-.8zm3.04-3.278c-.018 0-.035 0-.053-.002h-5.222V3.272h2.614c.737 0 1.315.34 1.82 1.074.254.365.848 1.382 1.024 1.685l.01.02.08.16c.415.8.648 1.31.39 1.74-.063.108-.253.348-.664.348zm-.06-.823c-.05-.217-.294-.68-.394-.87l-.075-.144c-.086-.15-.74-1.27-.986-1.63-.357-.52-.68-.72-1.146-.72h-1.793v3.36h4.394zm-16.45.967c-.434 0-.788-.353-.788-.787v-2.33c0-.435.35-.788.78-.788h3.17c.43 0 .78.353.78.787v2.33c0 .435-.36.79-.79.79H1.81zm3.135-.82V5.336H1.85V7.6h3.102zm2.13.82c-.434 0-.787-.353-.787-.787v-2.33c0-.435.353-.788.787-.788h3.17c.433 0 .787.353.787.787v2.33c0 .435-.36.79-.79.79H7.08zm3.136-.82V5.336H7.115V7.6h3.103zm-8.4-3.56c-.435 0-.79-.354-.79-.788V.922c0-.435.354-.788.788-.788h3.17c.433 0 .786.353.786.788v2.33c0 .434-.353.788-.787.788h-3.17zm3.134-.82V.954H1.85V3.22h3.102zm2.13.82c-.434 0-.787-.354-.787-.788V.922c0-.435.353-.788.787-.788h3.17c.433 0 .787.353.787.788v2.33c0 .434-.36.788-.79.788H7.08zm3.035-.82V1.09H7.25v2.13h2.867z"/>
  </g>
</svg>
