
678 bytes - 39.03% saving
<svg xmlns="http://www.w3.org/2000/svg" width="103" height="43" xmlns:xlink="http://www.w3.org/1999/xlink">
  <defs>
    <path id="b" d="M8.932 2.262C9.886 1.012 11.946 0 13.5 0h74.13c1.567 0 2.84 1.272 2.84 2.842V27.66c0 1.57-1.287 2.842-2.84 2.842H13.5c-1.57 0-3.612-1.015-4.568-2.272L.764 17.488c-.954-1.254-.955-3.282 0-4.533L8.932 2.262zM7.56 17.54c1.284 0 2.325-1.026 2.325-2.29 0-1.262-1.04-2.287-2.325-2.287-1.284 0-2.324 1.025-2.324 2.288 0 1.265 1.04 2.29 2.324 2.29z"/>
    <filter id="a" width="124.3%" height="172.1%" y="-22.9%" filterUnits="objectBoundingBox">
      <feOffset dx="2" dy="4" in="SourceAlpha" result="shadowOffsetOuter1"/>
      <feGaussianBlur stdDeviation="3" in="shadowOffsetOuter1" result="shadowBlurOuter1"/>
      <feColorMatrix values="0 0 0 0 0 0 0 0 0 0 0 0 0 0 0 0 0 0 0.123697917 0" in="shadowBlurOuter1"/>
    </filter>
  </defs>
  <g fill="none" fill-rule="evenodd">
    <g transform="translate(4 2)">
      <use fill="#000" filter="url(#a)" xlink:href="#b"/>
      <use fill="#74C56C" xlink:href="#b"/>
    </g>
    <text fill="#FFF" font-family=".SFNSDisplay, .SF NS Display" font-size="19" transform="translate(4 2)">
      <tspan x="14.318" y="21.758">{this.props.price} руб</tspan>
    </text>
  </g>
</svg>
